<?xml version="1.0" encoding="UTF-8" standalone="no"?>
<!-- Created with Inkscape (http://www.inkscape.org/) -->

<svg
   xmlns:dc="http://purl.org/dc/elements/1.1/"
   xmlns:cc="http://creativecommons.org/ns#"
   xmlns:rdf="http://www.w3.org/1999/02/22-rdf-syntax-ns#"
   xmlns:svg="http://www.w3.org/2000/svg"
   xmlns="http://www.w3.org/2000/svg"
   xmlns:sodipodi="http://sodipodi.sourceforge.net/DTD/sodipodi-0.dtd"
   xmlns:inkscape="http://www.inkscape.org/namespaces/inkscape"
   width="605.35675mm"
   height="702.70044mm"
   viewBox="0 0 605.35675 702.70044"
   version="1.1"
   id="svg5638"
   inkscape:version="0.92.1 r15371"
   sodipodi:docname="Pipette_PSF.svg">
  <title
     id="title6196">Pipette</title>
  <defs
     id="defs5632" />
  <sodipodi:namedview
     id="base"
     pagecolor="#ffffff"
     bordercolor="#666666"
     borderopacity="1.0"
     inkscape:pageopacity="0.0"
     inkscape:pageshadow="2"
     inkscape:zoom="0.35"
     inkscape:cx="641.7981"
     inkscape:cy="1845.3044"
     inkscape:document-units="mm"
     inkscape:current-layer="layer1"
     showgrid="false"
     fit-margin-top="0"
     fit-margin-left="0"
     fit-margin-right="0"
     fit-margin-bottom="0"
     inkscape:window-width="1366"
     inkscape:window-height="706"
     inkscape:window-x="-8"
     inkscape:window-y="-8"
     inkscape:window-maximized="1"
     showguides="false" />
  <metadata
     id="metadata5635">
    <rdf:RDF>
      <cc:Work
         rdf:about="">
        <dc:format>image/svg+xml</dc:format>
        <dc:type
           rdf:resource="http://purl.org/dc/dcmitype/StillImage" />
        <dc:title>Pipette</dc:title>
      </cc:Work>
    </rdf:RDF>
  </metadata>
  <g
     inkscape:label="Layer 1"
     inkscape:groupmode="layer"
     id="layer1"
     transform="translate(192.10967,-450.58744)">
    <path
       style="fill:#000000;stroke-width:0.35277778"
       d="m 393.85426,1152.8931 c -0.48507,-0.2034 -5.72382,-0.5157 -11.64166,-0.6939 -7.39899,-0.2229 -11.373,-0.4861 -12.72315,-0.8425 -1.07988,-0.2851 -2.30593,-0.5184 -2.72461,-0.5184 -0.41864,0 -1.44007,-0.3047 -2.26987,-0.6771 -0.82984,-0.3725 -2.39604,-0.8544 -3.48051,-1.071 -1.09933,-0.2195 -2.811,-0.9345 -3.86867,-1.6159 -1.0433,-0.6721 -2.07281,-1.2221 -2.28787,-1.2221 -0.21501,0 -1.3958,-0.8702 -2.62392,-1.9338 -1.22816,-1.0635 -2.49008,-2.0153 -2.80427,-2.1151 -0.31422,-0.1 -1.41033,-1.1345 -2.43586,-2.2995 -1.02549,-1.1651 -2.00071,-2.1183 -2.16715,-2.1183 -0.16644,0 -1.21405,1.3097 -2.32801,2.9105 -1.92134,2.7608 -2.65614,3.7106 -5.36385,6.9335 -1.03262,1.2291 -1.63996,1.5321 -5.65323,2.8205 -4.87623,1.5655 -8.65995,1.9381 -11.57037,1.1392 -0.79594,-0.2185 -3.4604,-0.4141 -5.92102,-0.4346 -4.1087,-0.034 -4.75365,-0.1341 -7.90145,-1.2218 -7.59382,-2.6241 -8.53839,-2.9828 -9.66438,-3.6692 -0.64435,-0.3929 -1.43016,-0.7149 -1.74629,-0.7156 -0.31609,0 -1.42734,-0.3855 -2.46944,-0.8551 -1.04207,-0.4695 -3.1647,-1.0443 -4.71692,-1.2772 -1.55223,-0.233 -4.25098,-0.8677 -5.99723,-1.4106 -8.11163,-2.5216 -12.81546,-3.5838 -16.40416,-3.7042 -1.26118,-0.042 -2.92806,-0.3489 -3.70417,-0.6814 -0.77611,-0.3325 -2.20486,-0.8412 -3.175,-1.1303 -0.97014,-0.2892 -2.55764,-0.9655 -3.52778,-1.503 -0.97014,-0.5374 -2.3567,-1.1708 -3.08123,-1.4075 -1.04066,-0.3399 -1.83007,-1.1103 -3.75871,-3.668 -1.34274,-1.7807 -2.93649,-3.7075 -3.54164,-4.2817 -1.36913,-1.2993 -2.14203,-3.7899 -2.14203,-6.9028 0,-2.7478 -0.009,-2.7592 -3.98001,-4.9654 -1.50992,-0.8389 -4.08086,-2.7513 -5.7132,-4.2497 -1.63233,-1.4984 -3.33382,-2.9192 -3.7811,-3.1572 -1.13002,-0.6015 -3.26888,-2.2801 -5.66523,-4.4461 -2.2443,-2.0286 -4.99075,-3.4678 -9.25907,-4.852 -3.83202,-1.2427 -6.44416,-2.3084 -8.02581,-3.2742 -0.72767,-0.4443 -2.1791,-1.1864 -3.22537,-1.6491 -1.94208,-0.8589 -2.48776,-1.4472 -6.4915,-6.9981 -0.83323,-1.1552 -2.55182,-4.3199 -3.81914,-7.0326 l -2.3042,-4.9323 0.59672,-1.4705 c 0.32823,-0.8087 1.35558,-3.6135 2.28307,-6.2329 0.92749,-2.6194 1.8904,-5.3181 2.13978,-5.9972 0.81664,-2.2238 4.7136,-8.5812 7.1302,-11.6323 2.65617,-3.3534 2.7813,-3.8859 1.6606,-7.0649 -0.98782,-2.8022 -2.1849,-9.2999 -2.24226,-12.1709 -0.0502,-2.5131 0.008,-2.6929 2.1245,-6.5264 0.3749,-0.6791 1.20043,-2.4396 1.83451,-3.9122 0.9295,-2.1586 1.64412,-3.1558 3.68759,-5.1456 2.44623,-2.3819 6.73414,-5.8189 10.20054,-8.1761 0.91778,-0.6241 2.58466,-1.975 3.70416,-3.002 2.05197,-1.88241 8.72642,-6.26291 14.9073,-9.78391 1.84076,-1.0486 4.59274,-2.8591 6.11554,-4.0232 1.5228,-1.1642 3.23967,-2.4342 3.81519,-2.8222 0.57556,-0.3881 1.95107,-1.3599 3.05668,-2.1596 1.10564,-0.7997 2.96273,-1.9736 4.1269,-2.6087 1.16417,-0.6351 3.06917,-1.7403 4.23333,-2.456 1.16417,-0.7157 3.46604,-2.0584 5.11528,-2.9837 1.64924,-0.9254 3.55424,-2.1135 4.23333,-2.6403 1.09584,-0.8501 4.95621,-3.2528 9.81894,-6.1112 2.97455,-1.7485 8.01508,-3.207 10.99495,-3.1815 2.84953,0.024 8.49765,1.1365 10.1738,2.0033 1.21733,0.6295 2.87898,2.5079 2.87898,3.2546 0,1.9601 -2.06325,2.4986 -3.99228,1.042 -1.25952,-0.9511 -3.92063,-1.8157 -7.20182,-2.34 -3.2743,-0.5232 -6.12168,0.255 -12.17386,3.3268 -2.76688,1.4044 -6.1419,3.2709 -7.50009,4.1477 -4.16864,2.6913 -6.24096,3.9078 -8.99584,5.2808 -3.38857,1.6887 -10.90972,6.3236 -13.95674,8.6008 -1.29815,0.9701 -3.34581,2.3988 -4.55037,3.175 -1.2046,0.7761 -2.73234,1.7661 -3.39499,2.1999 -0.66266,0.4339 -2.52759,1.6245 -4.1443,2.6459 -1.61667,1.0213 -4.23605,2.6811 -5.82083,3.68841 -1.58475,1.0073 -3.68533,2.6066 -4.66796,3.5539 -0.98259,0.9474 -2.57009,2.2553 -3.52777,2.9066 -4.1547,2.8252 -11.13773,8.6147 -12.24249,10.15 -1.86753,2.5954 -5.54976,10.398 -5.55254,11.766 -0.006,2.7145 1.15623,8.6493 2.0284,10.3615 1.52499,2.9937 1.65559,3.078 3.57,2.3046 0.8998,-0.3636 3.06473,-1.2361 4.81098,-1.9391 1.74625,-0.7029 4.28625,-1.7676 5.64444,-2.3658 1.3582,-0.5984 3.50132,-1.4524 4.7625,-1.8979 3.44749,-1.2178 17.32129,-7.5176 23.63611,-10.7326 1.06716,-0.5433 2.33716,-1.1057 2.82223,-1.2498 0.48507,-0.144 3.89819,-1.7303 7.58472,-3.5251 3.68653,-1.7947 8.13153,-3.8655 9.87778,-4.6018 4.53767,-1.9134 13.16214,-6.5585 15.04244,-8.1019 1.39542,-1.1454 7.43264,-3.6885 9.80271,-4.1293 1.51476,-0.2817 3.24076,-0.2806 6.33423,0 4.37963,0.4027 5.6859,0.7857 5.6859,1.6669 0,1.0769 -1.54446,1.5949 -4.61998,1.5495 -7.18824,-0.1062 -7.27583,-0.097 -10.46487,1.1017 -1.69577,0.6374 -4.51196,2.0492 -6.25821,3.1374 -3.08289,1.9212 -11.74118,6.378 -12.39054,6.378 -0.17713,0 -0.87486,0.3725 -1.5505,0.8279 -0.6756,0.4553 -2.26028,1.2416 -3.52146,1.7472 -1.26118,0.5057 -4.59493,1.9732 -7.40833,3.2612 -2.81341,1.288 -5.67091,2.5008 -6.35,2.6951 -0.6791,0.1944 -2.2666,0.8722 -3.52778,1.5064 -8.42222,4.2348 -19.05914,9.0967 -25.75278,11.7711 -9.6797,3.8674 -14.31491,6.3619 -17.7654,9.561 -3.09093,2.8657 -7.72971,9.4973 -8.83535,12.6311 -0.27161,0.7697 -0.82152,2.0419 -1.22203,2.827 -0.73991,1.4503 -1.8477,5.1042 -2.57164,8.482 -0.39578,1.8468 -0.38365,1.8965 1.28764,5.2917 0.92791,1.8851 2.17336,4.2212 2.76758,5.1913 1.62235,2.6486 5.05855,6.4213 6.08259,6.6783 0.4971,0.1248 1.726,0.7651 2.73092,1.4228 1.00489,0.6578 3.17645,1.589 4.82569,2.0694 8.26237,2.4065 7.97475,2.3653 13.05278,1.8681 1.94359,-0.1903 2.8799,-0.1348 3.52777,0.2093 1.10173,0.5852 1.35746,2.1827 0.50095,3.1292 -0.70122,0.7748 -1.49539,0.8491 -2.78698,0.2606 -0.69173,-0.3152 -1.00616,-0.3157 -1.31953,0 -0.5606,0.5606 0.77244,1.9139 4.43696,4.5043 1.58002,1.1169 3.58715,2.6991 4.46027,3.516 3.70939,3.4706 8.60591,6.4002 10.00986,5.989 0.41243,-0.1209 1.38486,-1.0031 2.16098,-1.9606 2.31887,-2.8608 9.1059,-10.6636 10.05416,-11.559 0.48507,-0.458 2.02325,-1.7335 3.41821,-2.8344 2.50557,-1.9775 4.56896,-3.7509 13.63927,-11.7227 2.55111,-2.2422 5.74961,-4.9564 7.1078,-6.0317 1.3582,-1.0753 3.8982,-3.1845 5.64445,-4.6872 1.74625,-1.5026 4.36562,-3.5268 5.82083,-4.4981 1.45521,-0.9714 3.94028,-3.0415 5.52242,-4.6004 2.49961,-2.4628 2.99586,-2.8043 3.78696,-2.6057 0.9754,0.2448 1.49345,1.4398 1.12604,2.5975 -0.24667,0.7771 -5.33012,5.0818 -7.2093,6.1049 -1.34179,0.7304 -2.33465,1.468 -7.09884,5.2737 -1.57882,1.2612 -3.71581,2.941 -4.74885,3.733 -2.82924,2.169 -8.02196,6.5872 -12.39443,10.5458 -4.16373,3.7696 -6.42154,5.7345 -9.91496,8.6287 -3.86584,3.2028 -12.42698,13.0757 -13.95747,16.0963 -0.81333,1.6051 -1.429,4.6612 -1.23317,6.1212 0.12696,0.9466 0.84977,2.1612 2.55386,4.2914 3.60811,4.5103 4.30477,5.1385 7.38364,6.6573 3.89488,1.9213 6.91434,2.8576 10.25493,3.1798 4.45873,0.4301 9.47727,1.5737 15.18388,3.4598 7.19546,2.3783 13.14877,3.7546 16.39714,3.7907 1.45927,0.016 2.8362,0.1425 3.05979,0.2808 0.24281,0.15 0.9319,-0.3899 1.71079,-1.3404 0.71734,-0.8754 1.56291,-1.5938 1.87911,-1.5965 1.42554,-0.012 10.92302,2.2321 15.92069,3.7619 5.52298,1.6905 6.67346,2.2186 7.24602,3.3257 0.65652,1.2696 1.92482,1.3577 4.88449,0.3395 2.39307,-0.8234 3.41616,-1.5784 5.43479,-4.0106 2.28571,-2.7541 3.50054,-5.1046 3.95118,-7.645 0.22373,-1.2612 0.63362,-2.6449 0.91087,-3.075 0.45865,-0.7116 0.36551,-1.1227 -1.03389,-4.5628 -1.7399,-4.2774 -1.75683,-5.1551 -0.0964,-4.9929 0.99702,0.097 1.18442,0.3262 2.06544,2.522 0.53291,1.3282 1.5276,3.3345 2.21047,4.4586 0.68284,1.1241 1.39993,2.8792 1.59357,3.9002 0.19364,1.021 0.54924,2.1102 0.79022,2.4205 2.01119,2.5894 3.1096,3.714 4.32241,4.4255 0.77612,0.4553 1.93453,1.4794 2.57426,2.2756 0.63973,0.7963 1.32838,1.4478 1.53035,1.4478 0.20196,0 1.66292,0.5741 3.24658,1.2758 4.16041,1.8433 4.21545,1.8565 13.82338,3.3149 1.16851,0.1774 5.93101,0.4212 10.58334,0.5418 11.66844,0.3025 12.8856,0.448 13.5407,1.6178 0.46662,0.8332 0.45791,1.0251 -0.084,1.8521 -0.6544,0.9987 -1.8247,1.173 -3.41048,0.5079 z m -76.2882,-5.4521 c 1.6824,-0.4509 0.50014,-1.3558 -2.70898,-2.0735 -1.08091,-0.2418 -3.23532,-0.7985 -4.78754,-1.2373 -4.12161,-1.1651 -5.48954,-1.2778 -6.05875,-0.4993 -0.64594,0.8833 -0.59528,1.1103 0.39222,1.7573 1.4091,0.9233 4.39582,1.6388 7.95958,1.9068 1.84327,0.1386 3.58952,0.276 3.88056,0.3053 0.29104,0.029 0.88635,-0.042 1.32291,-0.1593 z m 12.18724,-21.5778 c -0.60685,-0.3857 -2.55996,-3.3369 -2.56762,-3.8796 -0.004,-0.2508 -0.72972,-1.2293 -1.61371,-2.1744 -1.92896,-2.0622 -3.7205,-2.6211 -7.6199,-2.3771 -1.72808,0.1081 -3.34387,-0.03 -4.85207,-0.4137 -2.30053,-0.5859 -3.13559,-1.2738 -2.75389,-2.2684 0.18391,-0.4793 1.01131,-0.5383 6.14874,-0.4392 3.50228,0.068 6.56284,0.3022 7.46432,0.5724 1.74199,0.5219 4.56798,2.9056 5.73547,4.8378 0.43451,0.7192 1.15757,1.7563 1.60676,2.3048 0.98093,1.1977 1.05554,2.7343 0.17162,3.5342 -0.71074,0.6432 -1.08182,0.7086 -1.71972,0.3032 z m 17.53429,-9.2685 c -1.4552,-0.1324 -3.91583,-0.3505 -5.46805,-0.4847 -1.55222,-0.1341 -3.87805,-0.5615 -5.16851,-0.9496 -2.0525,-0.6173 -2.63434,-1.004 -4.64648,-3.0883 -2.42421,-2.511 -2.80934,-3.4174 -2.8606,-6.732 -0.0475,-3.069 1.80107,-1.8926 2.4239,1.5427 0.17953,0.9901 0.77907,1.9315 2.13663,3.3547 2.57945,2.7043 4.79588,3.4123 12.172,3.888 5.92081,0.3819 7.98227,0.1711 9.92837,-1.0154 2.07578,-1.2655 3.80107,-0.652 3.33936,1.1876 -0.23929,0.9535 -0.31761,0.9869 -4.0955,1.7448 -3.74587,0.7515 -4.77044,0.8244 -7.76112,0.5522 z m -51.78778,-1.8103 c -0.5498,-0.5498 -0.54112,-1.5125 0.0176,-1.9603 0.24254,-0.1944 1.39139,-0.626 2.55298,-0.9593 2.79326,-0.8013 3.70819,-1.3029 5.85675,-3.2112 1.34454,-1.1941 2.04036,-1.5734 2.7378,-1.4922 0.73713,0.086 0.95857,-0.056 1.04592,-0.6701 0.0637,-0.4484 0.66259,-1.1145 1.41111,-1.5698 2.28117,-1.3874 3.62719,-2.5607 4.18546,-3.6485 1.28524,-2.5043 3.51892,-5.5015 4.23856,-5.6873 1.8748,-0.4844 2,0.8994 0.28462,3.146 -0.6791,0.8894 -1.23472,1.761 -1.23472,1.937 0,0.5349 -3.85844,6.1945 -4.80128,7.0425 -0.96407,0.8671 -2.8963,1.069 -3.59022,0.3751 -0.32307,-0.3231 -0.50606,-0.1681 -0.80133,0.6789 -0.26599,0.763 -1.17507,1.6455 -2.98182,2.8945 -4.48723,3.102 -7.7881,4.2581 -8.92147,3.1247 z m 31.00854,-13.0756 c -1.97274,-1.0146 -1.84094,-3.0006 0.18644,-2.8098 5.2342,0.4926 5.80986,0.4886 7.39623,-0.052 5.29499,-1.8042 12.43337,-7.7903 15.81443,-13.2617 1.35657,-2.1953 2.08386,-3.0425 2.68799,-3.1313 0.96238,-0.1414 1.80213,0.7896 1.4931,1.6553 -0.64153,1.7969 -9.26574,10.7561 -12.30856,12.7865 -3.76569,2.5128 -6.65356,4.1671 -8.27052,4.7376 -1.79084,0.6318 -5.83244,0.6753 -6.99911,0.075 z M -101.07849,1068.05 c -4.26672,-0.8993 -10.30737,-5.2356 -12.44546,-8.9339 -0.61694,-1.0672 -1.49779,-2.4959 -1.95743,-3.175 -0.45964,-0.6791 -4.89743,-9.4104 -9.86175,-19.4028 -4.96432,-9.9924 -10.28821,-20.4411 -11.83086,-23.2192 -1.54266,-2.7781 -3.26661,-6.2504 -3.83102,-7.7161 l -1.02619,-2.665 0.37302,-4.63111 c 0.40646,-5.0463 0.63328,-6.5601 1.06387,-7.1005 0.1546,-0.1941 0.46639,-1.376 0.69285,-2.6267 0.22647,-1.2506 0.71047,-2.8594 1.07557,-3.575 0.78068,-1.5303 3.7526,-4.0134 5.93522,-4.9589 0.84691,-0.3669 1.95816,-0.9615 2.46945,-1.3214 0.91323,-0.6427 2.52332,-1.1451 12.04211,-3.7578 6.95624,-1.9093 17.12199,-4.9099 22.577782,-6.664 2.61938,-0.8423 6.11188,-1.9386 7.76111,-2.4364 11.07064,-3.3413 17.43832,-5.1901 19.57917,-5.6847 1.3582,-0.3137 3.73945,-0.8716 5.29167,-1.2398 1.55222,-0.3681 3.29758,-0.7729 3.87858,-0.8994 2.30915,-0.5031 2.34982,-0.8292 0.85843,-6.8851 -0.5961,-2.4204 -1.29518,-5.4327 -1.55349,-6.6939 -0.48506,-2.3681 -2.63951,-11.1783 -3.4939,-14.2875 -0.93337,-3.3966 -1.97975,-7.4624 -3.58626,-13.9347 -0.89097,-3.5895 -1.94073,-7.717 -2.3328,-9.1722 -0.39207,-1.4552 -0.99571,-3.8365 -1.34141,-5.2917 -0.3457,-1.4552 -0.96543,-3.91582 -1.37717,-5.46805 -1.31492,-4.95709 -6.78224,-27.32729 -8.01097,-32.77778 -0.65231,-2.89362 -1.48698,-6.30675 -1.85481,-7.58472 -0.36782,-1.27797 -1.33774,-5.10173 -2.15538,-8.49722 -0.81763,-3.39548 -1.78741,-7.28486 -2.15506,-8.64305 -1.45149,-5.36219 -4.31046,-17.07424 -4.7692,-19.53747 -0.26674,-1.43228 -0.72258,-2.96679 -1.013,-3.41002 -0.4805,-0.73332 -0.64246,-0.77075 -1.79935,-0.41568 -1.09059,0.33472 -1.48086,0.28222 -2.74527,-0.36911 -0.81067,-0.41758 -2.19638,-1.05982 -3.07937,-1.42716 -0.882982,-0.36735 -2.206542,-1.19567 -2.941252,-1.84076 -1.3236,-1.16212 -1.34604,-1.16752 -2.45152,-0.58928 -0.61363,0.32095 -2.30632,0.68386 -3.76153,0.80648 -2.37662,0.20024 -2.74454,0.14471 -3.61597,-0.54557 -0.78164,-0.61916 -0.97014,-1.05562 -0.97014,-2.24628 0,-2.22867 4.78072,-18.03596 7.19418,-23.78733 0.46712,-1.11316 1.26846,-3.89735 1.78075,-6.18707 0.51229,-2.28973 1.19158,-4.70867 1.50953,-5.37543 0.31796,-0.66677 0.49786,-1.29254 0.39978,-1.39062 -0.51389,-0.51389 -4.32141,-0.86022 -7.31099,-0.665 -2.84502,0.18577 -3.84163,0.0996 -6.13461,-0.53014 -6.49492,-1.78388 -8.73432,-3.71424 -12.02918,-10.3691 -2.89982,-5.857 -3.2592,-7.22695 -2.71526,-10.35052 0.47752,-2.7421 1.54837,-5.00718 3.69955,-7.82531 1.93099,-2.52966 2.70918,-3.22237 5.16962,-4.6017 2.08884,-1.171 4.85094,-3.86133 6.45879,-6.29096 0.89569,-1.35347 0.93299,-1.54452 0.48203,-2.4692 -0.26883,-0.55122 -0.76408,-2.19284 -1.10058,-3.64805 -0.33649,-1.45521 -0.91342,-3.75708 -1.28207,-5.11528 -1.65399,-6.09373 -4.02796,-15.75397 -4.46474,-18.16805 -0.26329,-1.45521 -0.88593,-3.66693 -1.38365,-4.91493 -0.49771,-1.248 -0.99722,-3.07363 -1.11001,-4.05695 -0.19273,-1.68025 -0.40889,-2.00074 -3.59174,-5.32547 -3.69394,-3.85857 -4.20685,-4.68332 -5.36699,-8.62992 -1.0155,-3.45457 -1.07384,-8.60099 -0.16067,-14.17493 l 0.67456,-4.11748 -1.30865,-4.08238 c -0.71976,-2.24531 -1.43542,-5.13537 -1.59036,-6.42234 -0.40743,-3.38436 0.0749,-8.00361 1.12461,-10.77101 l 0.89021,-2.34679 -0.8248,-0.77486 c -1.07047,-1.00565 -1.35407,-1.79265 -2.47877,-6.87878 -0.51487,-2.32833 -1.30792,-5.42395 -1.76234,-6.87916 -0.45441,-1.45521 -1.15358,-4.07458 -1.5537,-5.82083 -0.40011,-1.74625 -1.12332,-4.68313 -1.60711,-6.52639 -0.4838,-1.84327 -1.91212,-7.47889 -3.17406,-12.52361 -1.26193,-5.04473 -2.54121,-10.04535 -2.84283,-11.1125 -0.30162,-1.06716 -0.84316,-3.28966 -1.20342,-4.93889 -0.36025,-1.64924 -1.06819,-4.58611 -1.5732,-6.52639 -0.505,-1.94028 -1.79568,-7.09965 -2.86817,-11.46528 -1.0725,-4.36562 -2.26887,-9.00906 -2.65862,-10.31875 l -0.70863,-2.38125 h -1.57636 c -0.867,0 -3.12247,-0.24238 -5.01215,-0.53862 -4.41173,-0.69162 -7.35115,-2.11087 -9.48081,-4.57764 -1.94137,-2.24868 -4.62599,-6.92384 -5.13493,-8.94231 l -0.38704,-1.53495 -2.26141,0.24217 c -1.24378,0.1332 -2.76766,0.38737 -3.3864,0.56482 -0.61874,0.17745 -2.13409,0.32264 -3.36745,0.32264 -2.07989,0 -2.32943,-0.087 -3.44191,-1.19944 -0.9247,-0.9247 -1.19945,-1.49358 -1.19945,-2.4835 0,-2.37484 1.37867,-4.26404 5.29167,-7.25124 0.87312,-0.66654 2.28285,-1.97815 3.13273,-2.91469 0.84988,-0.93654 2.51676,-2.43989 3.70417,-3.34078 1.18741,-0.90089 3.66706,-2.92584 5.51032,-4.49988 1.84327,-1.57405 4.70077,-3.94167 6.35,-5.26138 2.79626,-2.23756 3.91055,-3.51625 5.33505,-6.12215 0.59652,-1.09124 8.19708,-7.36395 11.58626,-9.56209 1.07376,-0.69642 2.38494,-1.61423 2.91373,-2.03959 0.83711,-0.67337 4.84142,-2.72566 8.73996,-4.4794 3.05281,-1.37329 5.33044,-2.09914 8.11389,-2.5858 2.15708,-0.37715 3.34458,-0.78908 4.2314,-1.46786 1.31973,-1.01014 5.86601,-3.21936 6.64718,-3.23014 0.46901,-0.006 8.46975,-3.95528 22.282542,-10.99767 3.97757,-2.02795 8.10507,-4.03071 9.17222,-4.45059 2.54693,-1.00211 9.36626,-3.33211 12.7,-4.33928 4.33602,-1.30997 9.62803,-3.14864 10.0354,-3.48672 1.28917,-1.06991 14.78185,-5.66002 16.63771,-5.66002 0.67435,0 2.4497,-0.25362 3.94524,-0.56361 4.2397,-0.87879 11.786312,-0.50955 15.055007,0.7366 1.420001,0.54136 3.068944,1.50019 3.904562,2.27044 1.272403,1.17286 5.20693,3.90657 5.62258,3.90657 0.08441,0 2.899135,1.53264 6.254955,3.40587 8.6546134,4.83103 14.99883938,7.93226 20.0412364,9.79673 2.400869,0.88774 4.495758,1.61407 4.655309,1.61407 0.9227436,0 7.1204316,3.3057 8.8630276,4.72734 1.13194,0.92345 2.957565,2.16909 4.056944,2.76809 1.099379,0.599 2.475121,1.4468 3.057205,1.884 0.582083,0.43721 2.725208,1.62258 4.7625,2.63417 2.037292,1.01158 4.577292,2.50986 5.644445,3.3295 1.067153,0.81964 2.654653,1.84839 3.527778,2.28611 0.873125,0.43773 2.460625,1.5396 3.527778,2.44861 1.067153,0.90902 3.210278,2.54086 4.7625,3.62633 1.552223,1.08546 3.11887,2.30158 3.481437,2.70249 0.833784,0.92193 3.985709,2.9382 8.521144,5.45092 1.944751,1.07742 4.12254,2.42515 4.839526,2.99494 0.716989,0.56979 1.824577,1.24879 2.461309,1.50889 0.636733,0.2601 2.07819,1.06425 3.203233,1.78699 1.125048,0.72275 3.188798,1.74456 4.586112,2.27069 1.397317,0.52612 3.952187,1.82207 5.677489,2.87987 1.725306,1.0578 3.761952,2.14379 4.525885,2.41332 0.76393,0.26954 2.289193,0.95309 3.389472,1.51902 4.252955,2.18749 8.74993,4.22624 9.783315,4.43535 0.594018,0.1202 2.033149,0.98975 3.198059,1.93233 1.16492,0.94258 3.37766,2.34865 4.9172,3.12462 3.92495,1.97826 9.62783,6.34552 12.21017,9.35054 3.83388,4.46141 11.77423,13.05284 14.09582,15.25163 1.23527,1.16993 4.07157,4.09088 6.30289,6.491 2.23132,2.40012 5.08882,5.47007 6.35,6.8221 1.26118,1.35203 3.48368,3.26341 4.93889,4.24752 1.45521,0.9841 3.67771,2.58918 4.93889,3.56684 2.80504,2.17443 11.15159,9.59128 11.74217,10.43422 0.56924,0.8125 4.1365,3.99992 9.08241,8.11534 2.21523,1.84327 4.58752,3.89995 5.2717,4.57041 0.68421,0.67045 2.84864,2.4167 4.80988,3.88055 1.96123,1.46385 7.35873,6.02249 11.99444,10.13031 4.63571,4.10782 8.90482,7.82389 9.4869,8.25792 1.82753,1.36272 6.51669,6.04862 8.45016,8.44434 1.02041,1.26434 3.66039,4.04246 5.86666,6.17361 2.20627,2.13114 6.01842,5.81949 8.47146,8.19633 2.45308,2.37684 4.60277,4.32153 4.77711,4.32153 0.17434,0 1.07065,0.62278 1.99175,1.38394 0.9211,0.76116 3.06133,2.21688 4.75604,3.23492 1.69468,1.01804 5.06564,3.27608 7.49099,5.01787 2.42535,1.74178 5.1241,3.48414 5.99722,3.87191 1.6981,0.75416 5.27947,2.73328 10.40695,5.75107 1.74625,1.02777 5.3975,2.91924 8.11389,4.2033 5.732,2.70954 16.37178,8.06808 18.16806,9.15003 0.67909,0.40903 2.18722,1.12208 3.35139,1.58456 1.16416,0.46247 3.94229,1.8513 6.17361,3.08629 2.23132,1.23499 5.63393,2.9954 7.5614,3.91202 3.63111,1.72683 7.61774,3.7388 18.2535,9.2122 3.42967,1.76498 7.55717,3.74604 9.17222,4.40235 1.61509,0.65632 5.12385,2.16542 7.79728,3.35358 2.67345,1.18815 5.84845,2.48844 7.05555,2.88954 1.20714,0.4011 3.7029,1.26417 5.54616,1.91794 1.84327,0.65377 5.33577,1.77287 7.76111,2.48688 6.15196,1.81112 7.25749,2.18363 8.76893,2.95472 1.2083,0.61643 8.79225,3.26732 12.22135,4.27184 0.77611,0.22736 3.07799,0.52916 5.11528,0.67068 3.55978,0.24728 5.05372,0.61652 11.75844,2.90617 1.13136,0.38636 3.27448,0.78646 4.7625,0.88911 2.10894,0.14548 2.99854,0.38391 4.03482,1.08141 1.31999,0.88848 1.92497,2.08409 1.54955,3.06241 -0.30784,0.80218 -2.88252,1.44725 -3.90924,0.97943 -0.46852,-0.21347 -2.12118,-0.56193 -3.67259,-0.77434 -1.55138,-0.21242 -4.62041,-1.01384 -6.82001,-1.78095 -2.42584,-0.846 -4.6464,-1.3962 -5.64402,-1.39847 -1.27184,-0.003 -2.20035,-0.3241 -4.09568,-1.41684 -2.52222,-1.45417 -5.41161,-2.58382 -8.19432,-3.2037 -0.87313,-0.1945 -4.02481,-1.30658 -7.0037,-2.4713 -2.97893,-1.16471 -6.70955,-2.43767 -8.29028,-2.82879 -3.70085,-0.91569 -4.74282,-1.22421 -8.16575,-2.4178 -1.55222,-0.54127 -3.61597,-1.16823 -4.58611,-1.39324 -0.97014,-0.22502 -3.35139,-1.18107 -5.29167,-2.12456 -6.59401,-3.20642 -9.88705,-4.60862 -10.82336,-4.60862 -0.82113,0 -11.41515,-5.17985 -14.75303,-7.21337 -0.6791,-0.41372 -8.37847,-4.30119 -17.10972,-8.63884 -8.73125,-4.33764 -16.98625,-8.54275 -18.34445,-9.34469 -2.82716,-1.66929 -7.19472,-3.85206 -11.28889,-5.64184 -1.55222,-0.67856 -4.56847,-2.17263 -6.70278,-3.32017 -2.1343,-1.14753 -6.2618,-3.36128 -9.17222,-4.91944 -2.91041,-1.55816 -6.69561,-3.7614 -8.41156,-4.89609 -1.71595,-1.13468 -4.28713,-2.79567 -5.71373,-3.69107 -7.38318,-4.63398 -12.10638,-8.3386 -18.68304,-14.6539 -3.68653,-3.54004 -7.34202,-6.89606 -8.12331,-7.45783 -0.7813,-0.56176 -2.12425,-1.87951 -2.98436,-2.92833 -3.29054,-4.01252 -8.38172,-9.31857 -10.75796,-11.21197 -1.36183,-1.0851 -3.11104,-2.54827 -3.88715,-3.2515 -0.77611,-0.70322 -2.52635,-2.29319 -3.88945,-3.53325 -4.04745,-3.68217 -11.93317,-10.17946 -15.68806,-12.9259 -1.26023,-0.92178 -3.64148,-2.97839 -5.29167,-4.57022 -1.65015,-1.59183 -3.8734,-3.56316 -4.94055,-4.38072 -1.06715,-0.81757 -2.89278,-2.38799 -4.05694,-3.48983 -3.85586,-3.64943 -12.75355,-11.19213 -17.10972,-14.50418 -2.77259,-2.10801 -7.90992,-7.17181 -16.21942,-15.98724 -1.83866,-1.95061 -5.26031,-5.53094 -7.60365,-7.95629 -2.34336,-2.42534 -6.13107,-6.4274 -8.41715,-8.89345 -4.12796,-4.45293 -6.90573,-6.70191 -8.88463,-7.19328 -0.56766,-0.14095 -1.42898,-0.64807 -1.91405,-1.12693 -1.66717,-1.64585 -7.592177,-5.21532 -12.699997,-7.65104 -2.813403,-1.34159 -5.50404,-2.68481 -5.979189,-2.98493 -0.475153,-0.30012 -1.903903,-1.02519 -3.175,-1.61125 -1.271101,-0.58607 -3.89859,-1.9557 -5.838868,-3.04363 -1.940278,-1.08794 -4.336211,-2.24081 -5.324292,-2.56195 -0.988081,-0.32113 -2.972456,-1.29116 -4.409722,-2.15561 -1.437266,-0.86444 -2.762078,-1.57437 -2.94403,-1.5776 -0.181955,-0.003 -1.213831,-0.69802 -2.293055,-1.54397 -1.079229,-0.84595 -2.67661,-1.89793 -3.549735,-2.33773 -4.863565,-2.44985 -9.809411,-5.61975 -12.371516,-7.9292 -2.126894,-1.91714 -8.060253,-6.23147 -12.322931,-8.96037 -3.880037,-2.48394 -8.740038,-5.34017 -9.08654,-5.34017 -0.165764,0 -0.848166,-0.4065 -1.516451,-0.90335 -0.668285,-0.49684 -2.246941,-1.45061 -3.508121,-2.11948 -1.261181,-0.66887 -3.245556,-1.94638 -4.409723,-2.83891 -2.972823,-2.27917 -7.9093626,-4.51599 -15.0334706,-6.81188 -1.089381,-0.35108 -3.07375602,-1.20532 -4.409722,-1.89832 -1.335966,-0.69299 -3.778406,-1.90554 -5.427642,-2.69455 -1.649236,-0.789 -4.5861114,-2.3897 -6.5263894,-3.55711 -1.940278,-1.1674 -4.718403,-2.68778 -6.173612,-3.37862 -1.455208,-0.69084 -3.915834,-2.0977 -5.468056,-3.12637 -1.552222,-1.02867 -3.237114,-2.08711 -3.744204,-2.3521 -0.507089,-0.265 -1.608656,-0.95806 -2.447925,-1.54014 l -1.525944,-1.05833 -5.842353,0.0309 c -9.58484,0.0507 -12.25369,0.58818 -21.71735,4.37388 -1.55223,0.62093 -4.01285,1.49968 -5.46806,1.95278 -2.72551,0.84863 -6.79029,2.24291 -11.1125,3.81175 -1.3582,0.49299 -4.05695,1.39354 -5.99722,2.00123 -1.94028,0.6077 -4.95653,1.79039 -6.70278,2.62822 -5.4472,2.61349 -9.756702,4.77847 -13.052782,6.55738 -1.74625,0.94246 -4.7625,2.52181 -6.70278,3.50968 -4.3934,2.23684 -7.66064,4.07468 -9.88663,5.56127 -0.94423,0.63059 -1.89677,1.14653 -2.11675,1.14653 -2.16569,0 -17.4069,5.23466 -19.57023,6.72148 -0.48507,0.33337 -1.45557,0.84527 -2.15668,1.13753 -0.7011,0.29226 -2.68547,1.51198 -4.40972,2.71047 -1.72424,1.19851 -3.92874,2.70803 -4.89888,3.35449 -0.97014,0.64647 -2.31952,1.76195 -2.99861,2.47884 -0.6791,0.71689 -1.87914,1.75133 -2.66676,2.29875 -1.10444,0.76763 -1.57628,1.42572 -2.06259,2.87674 -0.63034,1.88078 -0.63024,1.88237 0.29635,4.6937 0.97233,2.95009 0.95979,3.98447 -0.0728,6.00716 -0.85296,1.67077 -4.90075,5.6732 -8.40917,8.31495 -1.76749,1.33087 -4.10905,3.38694 -5.20347,4.56905 -1.94171,2.09727 -1.98986,2.19874 -1.98986,4.19329 0,2.33748 0.81337,4.14242 3.35542,7.446 1.80704,2.34839 3.23662,3.62452 5.15905,4.60527 1.64037,0.83685 6.56352,1.82057 8.36157,1.67076 l 1.29202,-0.10765 -0.11311,-1.63365 c -0.18903,-2.73015 0.43135,-4.23813 2.5793,-6.26957 3.47577,-3.28724 8.89871,-5.15708 12.66532,-4.36702 2.61509,0.54852 4.96687,1.73789 5.53483,2.79913 0.26694,0.49879 0.8799,1.05689 1.36213,1.24024 2.82763,1.07506 14.18761,-2.1823 21.53959,-6.17626 1.84326,-1.00136 4.14514,-2.15349 5.11528,-2.5603 3.25544,-1.36511 9.15095,-4.4417 11.546012,-6.02533 2.07847,-1.37429 2.51276,-1.86073 3.49075,-3.90993 1.37558,-2.88226 1.64937,-4.86625 0.87753,-6.35883 -1.2432,-2.40408 -0.008,-5.27227 1.73915,-4.03933 0.38705,0.27309 1.5852,5.03845 1.57747,6.27404 -0.008,1.23654 0.70511,1.57044 3.32923,1.55942 3.39415,-0.0143 11.66168,-0.88366 14.56828,-1.53199 1.31048,-0.29231 4.52582,-0.95101 7.14519,-1.46377 2.61938,-0.51277 5.3975,-1.14904 6.17361,-1.41394 0.77611,-0.26491 3.14394,-0.90143 5.26184,-1.41449 8.73737,-2.11664 14.40641,-5.73144 16.94428,-10.80436 0.68949,-1.37819 1.253606,-2.69799 1.253606,-2.93289 0,-0.66156 1.288874,-1.67034 1.964412,-1.53751 0.333188,0.0655 0.781565,0.40218 0.996389,0.74815 0.319208,0.51406 -0.04459,1.48229 -1.990662,5.29806 -1.309685,2.56798 -2.381245,4.90291 -2.381245,5.18876 0,0.91312 2.461033,4.13066 3.875372,5.06663 0.751689,0.49744 1.880451,1.66363 2.50836,2.59153 0.627909,0.92791 1.812706,2.41621 2.632886,3.30734 0.820181,0.89112 1.766567,2.16112 2.103078,2.82222 1.003187,1.97078 4.43266,5.96408 6.332768,7.37391 0.975656,0.72391 2.885172,2.48955 4.243366,3.92364 3.089057,3.26167 17.4577464,16.95026 19.7168724,18.78362 0.923417,0.74939 2.758712,2.81314 4.078429,4.58611 3.4137206,4.58616 6.5273096,7.64523 8.9480636,8.79141 2.278945,1.07903 2.816419,1.86275 1.797985,2.62174 -0.771141,0.5747 -2.831465,0.37821 -4.327684,-0.41272 -0.513211,-0.27129 -2.277851,-1.77488 -3.921429,-3.3413 -1.6435776,-1.56642 -3.1026446,-2.84804 -3.2423736,-2.84804 -0.581991,0 -0.564857,0.7576 0.104052,4.60096 0.386927,2.22315 0.848889,5.78835 1.02658,7.92265 0.998178,11.98932 1.2259946,13.38933 3.1070906,19.09421 1.064941,3.22969 4.452937,10.35323 6.29817,13.24242 0.872663,1.36638 4.357497,6.11793 8.754703,11.93698 4.493042,5.94587 7.282297,10.73349 8.484222,14.56271 0.63627,2.02709 0.635621,2.04351 -0.110441,2.78957 -0.714477,0.71448 -0.793616,0.72221 -1.649673,0.1613 -0.494556,-0.32404 -0.986801,-1.02372 -1.093876,-1.55485 -0.74996,-3.71997 -4.196931,-10.12132 -7.658838,-14.22316 -6.219759,-7.3695 -8.566154,-10.53525 -10.175414,-13.72865 -4.458176,-8.84678 -6.6143996,-14.50564 -7.5280696,-19.75692 -0.286953,-1.64923 -0.702899,-5.76571 -0.924331,-9.14773 -0.559205,-8.54104 -2.057019,-16.83625 -3.680202,-20.38176 -0.491762,-1.07414 -0.899129,-2.21162 -0.90526,-2.52772 -0.01471,-0.75906 -1.17217102,-2.03969 -3.522927,-3.89785 l -1.920008,-1.51768 -3.181985,0.24402 c -1.750095,0.13422 -4.2138644,0.45831 -5.4750444,0.72021 -1.261181,0.2619 -3.721806,0.57394 -5.468056,0.69343 -1.746251,0.11949 -5.159376,0.44111 -7.584723,0.71472 -10.173378,1.14767 -12.111823,1.28952 -19.718053,1.44295 -12.07222,0.24352 -19.10996,1.13073 -24.10752,3.03911 -3.07093,1.17268 -6.10997,3.37838 -6.97147,5.05981 -0.29267,0.57121 -1.55346,2.61971 -2.80175,4.55224 -5.64939,8.74601 -7.23141,16.36924 -5.34769,25.76875 0.43964,2.19372 1.67332,6.86208 2.13271,8.07037 0.5229,1.37533 3.10859,4.39714 7.68992,8.98696 3.93815,3.94545 4.36442,4.26243 8.55441,6.36133 2.42534,1.21493 4.72722,2.49892 5.11527,2.85331 0.38806,0.35439 1.93682,1.3872 3.4417,2.29514 1.84652,1.11407 3.08755,2.16155 3.81694,3.22168 0.59444,0.86399 1.66505,1.94689 2.37914,2.40645 1.7506,1.12661 4.77221,4.2853 5.77411,6.03605 0.44874,0.78416 1.49594,2.29228 2.32711,3.35139 2.88882,3.68103 3.95444,5.11877 6.13379,8.27566 2.165697,3.13711 6.143743,7.39366 8.990293,9.6197 1.511639,1.18212 6.03484,3.21372 11.586924,5.20428 4.626201,1.6586 9.4259444,3.53629 10.6267014,4.15723 0.57544,0.29757 2.071088,0.80342 3.323664,1.12411 1.252577,0.32069 3.22991398,1.19824 4.394081,1.9501 1.164166,0.75186 3.069167,1.79977 4.233333,2.32869 1.164167,0.52892 2.923389,1.49454 3.9093816,2.14583 1.748532,1.15498 7.553999,3.46264 10.025342,3.98506 0.679097,0.14355 2.494932,0.59922 4.035192,1.01258 1.540256,0.41337 3.394231,0.75158 4.11994,0.75158 2.227295,0 3.2752,1.90324 1.634452,2.96855 -0.877708,0.56987 -1.503695,0.47666 -6.967362,-1.03749 -1.649236,-0.45706 -3.951111,-1.0181 -5.115278,-1.24677 -3.926385,-0.77122 -7.749897,-2.07413 -9.7013896,-3.30588 -1.067153,-0.67357 -3.249965,-1.95962 -4.850695,-2.85789 -1.600729,-0.89826 -2.91041602,-1.77503 -2.91041602,-1.94836 0,-0.52348 -1.79172698,-1.26185 -4.54636098,-1.87356 -1.433347,-0.31829 -3.129576,-0.90225 -3.769406,-1.29768 -1.233078,-0.76209 -6.8592994,-2.76423 -10.8073274,-3.84589 -1.30138,-0.35654 -2.939757,-1.00277 -3.64084,-1.43606 -0.701082,-0.4333 -2.450564,-1.28388 -3.887742,-1.89019 -3.598425,-1.5181 -9.722557,-7.22889 -13.245147,-12.35118 -1.3495,-1.96233 -3.08536,-4.36163 -3.85747,-5.33176 -0.77212,-0.97014 -2.18526,-3.03389 -3.14031,-4.58612 -1.77607,-2.88658 -4.87522,-6.35699 -6.62871,-7.42279 -0.53947,-0.3279 -1.84651,-1.62684 -2.90453,-2.88653 -1.51692,-1.80607 -2.44811,-2.54088 -4.40394,-3.47518 -1.36415,-0.65166 -2.61225,-1.05285 -2.77356,-0.89154 -0.16131,0.1613 -0.60234,3.29128 -0.98007,6.9555 -0.37773,3.66421 -0.84367,7.94045 -1.03541,9.50274 -0.19174,1.56229 -0.34866,3.62604 -0.34869,4.58611 -9e-5,2.70322 -1.23383,9.07812 -2.82979,14.62197 -0.53063,1.84327 -1.07759,4.06577 -1.21545,4.93889 -0.45006,2.85041 -1.97584,8.54165 -2.63844,9.84148 -0.67164,1.31756 -2.62545,6.4084 -4.04427,10.53771 -1.49982,4.36506 -3.97181,10.46156 -5.32582,13.1347 -2.05125,4.04965 -4.62906,11.49509 -4.91617,14.1993 -0.23688,2.23108 -0.20828,2.38125 0.45346,2.38125 0.38846,0 3.29828,-0.61797 6.46627,-1.37328 3.168,-0.7553 7.34749,-1.53781 9.28777,-1.73889 1.94028,-0.20109 10.11591,-0.3617 18.16806,-0.35691 12.3911,0.007 15.04676,-0.0816 17.286112,-0.57908 1.455209,-0.32328 4.00334,-0.71999 5.662514,-0.88159 3.562329,-0.34695 5.977362,-0.91386 13.563876,-3.18402 3.104445,-0.92896 7.6882004,-2.26833 10.1861214,-2.97639 3.729789,-1.05723 7.202879,-2.37282 7.295611,-2.76353 0.01058,-0.0446 0.229457,-1.35103 0.486403,-2.90325 0.256945,-1.55222 1.018628,-4.25097 1.692628,-5.99722 1.610194,-4.1718 1.780095,-5.55505 1.343187,-10.93551 -0.374513,-4.61209 -0.233165,-5.46866 0.902409,-5.46866 0.958134,0 1.583281,2.10574 1.876062,6.3193 0.336084,4.83673 0.09651,6.77754 -1.37281,11.12118 -1.294448,3.8267 -1.413355,5.84285 -0.344594,5.84285 1.458112,0 14.7149266,-4.68389 17.6224856,-6.22636 1.649237,-0.87493 4.807868,-2.30729 7.019182,-3.18302 7.780563,-3.08128 11.857257,-5.67916 17.206169,-10.96465 2.167343,-2.14164 4.178448,-4.35379 4.469116,-4.91589 0.290671,-0.56209 0.701111,-2.04712 0.912093,-3.30006 0.417005,-2.47647 0.941751,-4.5444 2.583689,-10.18188 l 1.06904,-3.67047 -0.447555,-7.44203 c -0.246154,-4.09311 -0.387304,-7.82268 -0.313669,-8.28794 0.179641,-1.13503 1.166686,-1.74701 1.985966,-1.23134 0.520778,0.32779 0.681948,1.34853 1.030196,6.52459 0.655676,9.74535 0.604654,11.58062 -0.395856,14.23873 -0.475731,1.2639 -1.205699,3.92659 -1.622149,5.91708 -0.416451,1.99049 -1.164407,4.96845 -1.662124,6.61769 l -0.904938,2.99861 -4.487557,4.44503 c -5.075647,5.02756 -8.534058,7.51556 -12.657043,9.10555 -2.968374,1.14472 -4.917641,2.00027 -9.904004,4.34694 -4.781151,2.25009 -6.020926,2.77085 -8.643056,3.63047 -3.608546,1.18299 -12.5265286,4.9762 -13.6472086,5.80476 -0.530476,0.3922 -1.37177,0.71308 -1.869543,0.71308 -0.497773,0 -1.813888,0.33293 -2.92470102,0.73984 -1.110812,0.40691 -2.89278498,0.95427 -3.95993798,1.21634 -3.897937,0.95728 -5.89293,1.50005 -9.3486114,2.54347 -3.481131,1.0511 -6.61523,1.8759 -10.406946,2.73879 -1.067152,0.24285 -2.886442,0.69793 -4.042868,1.01128 -1.156424,0.31335 -2.775797,0.56973 -3.598609,0.56973 -0.822809,0 -2.257895,0.15741 -3.189076,0.34981 -3.076754,0.6357 -17.388994,1.39262 -20.041594,1.05992 -2.86408,-0.35923 -13.17744,-0.16673 -17.28202,0.32256 -3.04869,0.36343 -13.46705,2.90147 -16.05139,3.91032 -0.87313,0.34084 -2.14313,0.73794 -2.82223,0.88244 -2.1762,0.46305 -9.9823,4.10053 -12.214452,5.69168 -4.54789,3.24188 -11.56349,11.06824 -10.68311,11.91771 0.41181,0.39736 12.4293,-1.1619 19.546182,-2.5361 3.05344,-0.58959 6.16915,-0.75451 13.58194,-0.71891 2.61938,0.0126 6.54676,-0.012 8.72751,-0.0546 3.4531,-0.0675 4.17051,0.022 5.55668,0.69302 1.91411,0.9266 3.45313,2.70041 4.03868,4.6548 0.35424,1.18235 0.32791,2.07399 -0.14786,5.00724 -0.31836,1.9628 -0.7196,4.12435 -0.89166,4.80345 -0.81495,3.21667 -1.70955,8.56938 -1.86842,11.17948 -0.0967,1.58906 -0.5288,4.07811 -0.96018,5.53121 -1.1242,3.78688 -0.8583,4.85325 1.45874,5.85001 0.98193,0.42241 3.1609,0.98702 4.84217,1.25468 1.68126,0.26766 4.08872,0.6518 5.3499,0.85365 5.93275,0.94953 12.07951,1.86479 15.82372,2.35616 2.259524,0.29654 4.793672,0.62966 5.631441,0.74028 0.872113,0.11515 2.120124,0.004 2.919653,-0.25974 1.263273,-0.41692 1.48807,-0.39366 2.357339,0.24396 1.726964,1.26674 3.891132,1.53087 12.543565,1.53087 6.6892074,0 8.9033154,-0.12687 11.5736454,-0.66318 1.81611398,-0.36474 4.651404,-0.76773 6.30064,-0.89552 4.177792,-0.32371 14.9224156,-2.17853 16.1190386,-2.78259 0.66676,-0.33658 3.124616,-0.59923 7.517074,-0.80326 6.10386,-0.28353 8.340736,-0.32073 16.404168,-0.27275 1.74625,0.0104 5.23875,0.0204 7.761111,0.0223 9.541836,0.007 25.991032,0.44411 32.10278,0.85278 6.885182,0.46037 24.551633,0.58826 30.515283,0.22089 2.37298,-0.14618 5.16213,-0.61678 7.76111,-1.30949 2.23132,-0.59471 5.04711,-1.31446 6.2573,-1.59944 1.2102,-0.28498 3.17113,-0.92674 4.35761,-1.42612 2.71377,-1.14221 4.37815,-1.07524 4.37815,0.17615 0,0.57819 -0.29475,1.00996 -0.88195,1.29194 -1.12573,0.54058 -17.94483,4.63159 -20.28472,4.93397 -2.76432,0.35723 -6.24433,1.12556 -6.56913,1.45036 -0.16248,0.16247 0.32402,1.16856 1.08109,2.23575 1.14551,1.61474 1.95825,2.26247 4.84338,3.86001 l 3.46688,1.91967 4.93889,0.0102 c 4.87527,0.0101 7.02294,-0.22281 14.2875,-1.54941 2.03729,-0.37203 5.21229,-0.94272 7.05556,-1.26821 1.84326,-0.32548 4.22451,-0.91309 5.29166,-1.30578 1.06716,-0.39269 2.56798,-0.73452 3.3352,-0.75962 1.29671,-0.0424 1.41926,0.0386 1.74099,1.15059 0.30318,1.04804 0.24677,1.27666 -0.45547,1.84528 -0.7191,0.5823 -0.90166,0.59725 -1.77542,0.14542 -0.83563,-0.43213 -1.26944,-0.43472 -3.05612,-0.0183 -1.14522,0.26693 -4.54286,0.97361 -7.55029,1.5704 -5.91556,1.17387 -9.99324,2.37344 -9.69705,2.85268 0.30997,0.50154 6.23771,3.74591 7.93316,4.34198 0.87313,0.30696 2.48095,0.73124 3.5729,0.94285 1.09195,0.2116 2.60008,0.70169 3.35139,1.08908 0.75131,0.38739 3.58849,1.17699 6.30488,1.75466 2.71639,0.57767 5.64187,1.28538 6.50103,1.57264 0.85919,0.28727 2.44669,0.52261 3.52777,0.52293 1.08112,3.5e-4 5.77564,0.31601 10.43231,0.70146 10.50615,0.8697 9.44894,0.83799 18.52084,0.55573 7.53455,-0.23439 16.6026,-0.96312 20.61725,-1.65679 1.15302,-0.19924 6.31239,-0.98925 11.46528,-1.75557 5.15288,-0.76632 11.03573,-1.70677 13.07302,-2.08987 4.97798,-0.93609 11.08079,-1.74645 13.17869,-1.74994 0.94238,-0.001 2.82247,-0.27053 4.17798,-0.5977 2.64961,-0.63952 3.54549,-0.44561 3.73493,0.80839 0.1124,0.74387 -3.62052,4.14137 -4.29891,3.91266 -0.21368,-0.0721 -0.38852,-0.5846 -0.38852,-1.139 v -1.008 l -3.52778,0.0961 c -3.6287,0.0989 -6.68969,0.53934 -12.52361,1.80204 -1.84326,0.39896 -4.93889,1.04779 -6.87916,1.44181 -4.42186,0.89803 -5.48002,1.29469 -5.22521,1.95876 0.25689,0.6694 1.97178,1.5415 3.03124,1.5415 0.46183,0 1.62063,0.40781 2.57514,0.90628 0.95451,0.49844 3.71987,1.59036 6.14521,2.42652 2.42535,0.83615 6.31473,2.23036 8.64306,3.09827 2.32833,0.86787 5.90021,2.13702 7.9375,2.82028 2.03729,0.68326 5.05354,1.75479 6.70278,2.38118 1.64924,0.62636 3.73514,1.36772 4.63536,1.64744 0.90022,0.27975 2.64647,1.14363 3.88055,1.91978 1.23409,0.77614 3.51381,2.02099 5.06604,2.76634 1.55222,0.74535 4.33207,2.36569 6.17745,3.6008 1.84538,1.23508 4.94101,2.94795 6.87917,3.80637 1.93816,0.85841 5.50831,2.46387 7.93365,3.56764 2.42535,1.10381 4.8066,2.12792 5.29167,2.27577 0.48507,0.14788 2.54882,1.02312 4.58611,1.94497 2.03729,0.92181 4.5804,1.92761 5.65133,2.23509 1.07092,0.30748 2.28141,0.87045 2.68993,1.25102 0.40851,0.38062 1.75482,1.20068 2.99173,1.82238 1.23694,0.6217 2.69381,1.44445 3.23755,1.82838 0.54373,0.38393 1.78138,0.98781 2.75036,1.342 0.96901,0.35415 3.54037,1.71126 5.71419,3.01576 3.68102,2.20895 5.38879,3.42198 9.42047,6.69134 0.87313,0.70803 2.46063,1.91989 3.52778,2.69304 1.06715,0.77318 2.3786,1.82044 2.91433,2.32727 0.5357,0.50688 3.18178,2.43798 5.88014,4.29141 2.69836,1.85342 6.78441,4.89503 9.08011,6.75915 2.29574,1.86415 5.20591,4.08284 6.46709,4.93045 3.57734,2.40429 11.41578,8.10917 15.82205,11.51548 7.59686,5.87276 9.4301,7.09309 13.10008,8.72028 2.02562,0.8981 3.92709,1.8463 4.22554,2.10711 0.29845,0.26081 1.57448,0.98015 2.83566,1.59854 2.89836,1.42116 3.88056,2.33422 3.88056,3.60726 0,1.05184 -1.07234,2.40795 -1.90408,2.40795 -0.27111,0 -1.45285,-0.47625 -2.62605,-1.05833 -1.17319,-0.58208 -2.28808,-1.05833 -2.47752,-1.05833 -0.18941,0 -1.79627,-1.24288 -3.57082,-2.76194 -1.7745,-1.51902 -4.20856,-3.26566 -5.40907,-3.8814 -1.20047,-0.61574 -3.0553,-1.82573 -4.12189,-2.68891 -1.06655,-0.86314 -3.36793,-2.6695 -5.11418,-4.01415 -1.74625,-1.34461 -3.48206,-2.78624 -3.85735,-3.20361 -0.37528,-0.41741 -1.24841,-1.0995 -1.94027,-1.51578 -0.69187,-0.41631 -2.76606,-1.88164 -4.60933,-3.25631 -1.84326,-1.37464 -4.3035,-3.12039 -5.46717,-3.8794 -1.16368,-0.759 -3.54493,-2.59461 -5.29167,-4.07913 -4.12948,-3.50961 -7.87718,-6.34993 -8.37847,-6.34993 -0.43325,0 -3.08088,-1.99019 -7.49741,-5.63566 -1.55223,-1.28122 -3.8541,-2.94093 -5.11528,-3.68822 -1.26118,-0.74729 -3.00743,-2.03232 -3.88056,-2.85567 -1.77338,-1.6722 -7.00288,-5.2421 -9.70139,-6.62259 -2.77833,-1.42134 -7.6745,-3.65784 -8.64305,-3.948 -0.48507,-0.14531 -2.46945,-1.01957 -4.40973,-1.94279 -3.92902,-1.86944 -9.05189,-4.2007 -13.58194,-6.1807 -8.42172,-3.68102 -17.04524,-7.94928 -19.82047,-9.81025 -1.28912,-0.86445 -3.42907,-1.93273 -4.75544,-2.37399 -1.32638,-0.44125 -3.317,-1.42014 -4.42363,-2.17529 -1.10662,-0.7552 -2.93225,-1.73923 -4.05694,-2.1868 -1.12469,-0.44754 -2.52116,-1.07097 -3.10325,-1.3854 -1.73587,-0.93765 -5.40808,-2.37409 -9.34861,-3.65686 -2.03729,-0.66318 -6.48229,-2.29415 -9.87778,-3.62436 -3.39548,-1.33019 -7.12611,-2.68556 -8.29027,-3.01195 -1.16417,-0.32636 -2.43417,-0.79216 -2.82223,-1.03512 -0.38805,-0.24292 -1.4993,-0.69056 -2.46944,-0.99473 -3.05072,-0.95645 -4.92048,-1.70444 -5.46806,-2.18747 -0.6314,-0.557 -2.98076,-1.23775 -4.28103,-1.24051 -0.51128,0 -1.75013,-0.26698 -2.753,-0.59086 -1.57967,-0.51019 -2.16264,-0.53153 -4.36203,-0.15981 -4.68274,0.79149 -12.04856,1.47366 -13.65691,1.26481 -0.8763,-0.11377 -3.97193,0.0576 -6.87917,0.38083 -5.87685,0.65338 -12.41503,0.51565 -20.03679,-0.42207 -2.36453,-0.2909 -5.966,-0.60723 -8.00329,-0.70294 -2.34139,-0.10996 -4.3531,-0.41416 -5.46806,-0.82681 -0.97014,-0.35902 -3.57836,-0.99472 -5.79607,-1.41266 -2.2177,-0.4179 -4.78388,-1.14078 -5.70261,-1.60634 -0.91874,-0.46556 -2.91427,-1.09359 -4.43449,-1.39564 -1.73706,-0.34513 -4.12386,-1.21212 -6.42385,-2.33343 -2.0129,-0.98133 -4.63227,-1.98132 -5.82084,-2.22218 -2.00336,-0.40599 -2.19007,-0.52598 -2.55906,-1.6446 l -0.39804,-1.20668 -5.07002,-0.17639 -5.07002,-0.17639 -2.82222,-1.65815 c -3.94046,-2.31517 -5.32755,-3.38648 -6.31332,-4.87607 -0.87874,-1.32788 -4.10006,-3.16716 -5.54694,-3.16716 -0.40065,0 -1.13209,-0.3175 -1.62543,-0.70556 -0.828689,-0.65185 -1.437108,-0.70609 -7.993141,-0.71254 -3.902897,-0.004 -8.188368,-0.16487 -9.523268,-0.35784 -1.334905,-0.19296 -6.81178,-0.42526 -12.170834,-0.51622 -5.359059,-0.091 -11.880096,-0.34668 -14.491199,-0.56829 -2.611099,-0.2216 -5.786099,-0.29063 -7.055556,-0.15338 -1.269454,0.13724 -7.070599,0.28313 -12.891433,0.32419 -9.202237,0.0649 -11.158792,0.17786 -14.993056,0.86555 -7.579209,1.35935 -10.224478,1.78901 -16.4041676,2.66448 -11.581371,1.64072 -12.319562,1.69339 -22.2725104,1.5891 -11.168688,-0.11703 -9.838797,-0.58812 -11.398565,4.03776 -0.534349,1.58475 -1.410847,3.99261 -1.947771,5.3508 -0.536928,1.3582 -1.432511,3.70734 -1.990189,5.22032 -1.134181,3.07701 -2.559149,5.06337 -4.602388,6.41553 -2.3058,1.5259 -7.47634,3.63043 -9.55864,3.89061 -2.27274,0.28395 -6.20344,-0.54533 -7.72704,-1.63022 -1.29167,-0.91977 -1.49398,-0.86477 -2.77659,0.75466 -2.14076,2.70291 -4.45886,3.06952 -7.63622,1.20759 l -1.47101,-0.86201 -1.0924,1.37925 c -0.60082,0.75862 -1.78558,1.78552 -2.63279,2.28202 -0.84722,0.4965 -1.62711,1.12871 -1.7331,1.4049 -0.10599,0.27619 0.17703,2.06636 0.62893,3.9781 1.45591,6.15925 6.13099,25.18396 7.57269,30.81619 0.76982,3.00744 1.80728,7.21431 2.30547,9.34862 0.49819,2.1343 1.14251,4.75368 1.43181,5.82083 0.47693,1.75927 2.87418,11.52849 4.93433,20.10833 1.32181,5.50485 6.09353,24.60477 7.0948,28.39867 0.51209,1.9402 1.22656,5.0359 1.58772,6.8791 0.87251,4.4531 2.34768,10.9203 3.1383,13.7584 0.35133,1.2611 1.22173,4.7536 1.93423,7.7611 1.48483,6.2675 3.2109,12.782 3.76221,14.1993 0.20756,0.5335 0.55889,0.9701 0.78075,0.9701 0.22185,0 1.988534,-0.5367 3.925951,-1.1927 1.937417,-0.6561 6.538825,-2.0971 10.225353,-3.2024 3.686528,-1.1052 8.131529,-2.462 9.877779,-3.0152 1.74625,-0.5531 4.9212504,-1.5114 7.0555564,-2.1298 2.134305,-0.6183 5.78555598,-1.7366 8.113889,-2.4851 2.328334,-0.7485 6.138334,-1.9316 8.4666676,-2.6291 2.328333,-0.6975 8.440209,-2.6267 13.581945,-4.2871 5.141737,-1.6605 10.539237,-3.391 11.994445,-3.8458 1.455209,-0.4547 3.677709,-1.164 4.93889,-1.5763 1.26118,-0.4122 3.48368,-1.1165 4.938889,-1.565 1.455208,-0.4485 5.613527,-1.843 9.240711,-3.099 3.627181,-1.2559 7.453497,-2.3908 8.502926,-2.5219 1.04943,-0.1311 2.671029,-0.468 3.603555,-0.7487 2.177168,-0.6552 9.577398,-0.6747 11.992127,-0.032 4.835878,1.2879 8.1875,3.7595 9.805061,7.2305 0.601041,1.2898 1.695965,3.2819 2.433158,4.427 2.732458,4.2443 10.507305,20.1379 11.118875,22.7296 0.10678,0.4525 0.42899,0.9128 0.71602,1.023 0.28703,0.1102 2.2901,0.017 4.45125,-0.2065 2.16116,-0.2238 7.26313,-0.4948 11.33771,-0.6022 4.07459,-0.1074 8.75771,-0.338 10.40695,-0.5125 1.64923,-0.1745 5.30048,-0.4887 8.11389,-0.6981 2.8134,-0.2096 5.82965,-0.5416 6.70277,-0.738 1.56313,-0.3515 14.94201,-1.1409 17.94211,-1.0586 1.28576,0.035 1.75619,-0.155 2.86896,-1.1603 l 1.33103,-1.2025 4.89215,-0.2318 c 5.25889,-0.2491 14.77571,-1.303 19.35603,-2.1434 1.55223,-0.2847 5.60035,-0.759 8.99584,-1.0538 3.39548,-0.2949 7.28486,-0.7759 8.64305,-1.069 6.25207,-1.349 8.05992,-1.6895 12.34723,-2.3253 4.84,-0.7178 10.05124,-1.2395 15.11501,-1.5133 1.67908,-0.091 3.18724,-0.2481 3.35146,-0.3496 0.16422,-0.1015 2.50581,-0.4256 5.20354,-0.7202 2.69776,-0.2946 5.85749,-0.6916 7.02166,-0.8821 1.16416,-0.1905 3.20078,-0.512 4.52582,-0.7143 1.325,-0.2023 2.67437,-0.5096 2.99861,-0.6829 0.3242,-0.1732 2.01821,-0.59 3.76446,-0.9261 1.74625,-0.3361 4.7625,-1.2178 6.70277,-1.9593 1.94028,-0.7415 5.90903,-2.0118 8.81945,-2.8228 l 5.29167,-1.4746 h 13.93472 c 14.88578,0 19.21743,0.3218 20.74284,1.5217 0.47117,0.3706 1.29427,1.3512 1.82912,2.1791 1.2857,1.9902 2.96379,3.4998 5.1211,4.6072 3.49585,1.7945 7.11814,3.4244 7.61104,3.4247 0.47596,2e-4 2.50691,1.1577 8.95307,5.1025 3.25512,1.992 9.91846,5.2116 14.48033,6.9965 1.74625,0.6833 4.28625,1.6795 5.64445,2.214 2.23682,0.8802 5.75017,2.7994 10.05417,5.4922 0.87312,0.5463 2.35514,1.4031 3.29335,1.904 0.93822,0.5009 3.55759,2.0766 5.82084,3.5015 2.26324,1.4249 5.84729,3.6776 7.96456,5.0058 2.77604,1.7417 5.05569,3.5831 8.17463,6.6033 2.37875,2.3034 4.42401,4.5824 4.54498,5.0644 0.26801,1.0679 -0.55058,2.4348 -1.79857,3.0035 -1.16134,0.5291 -1.83878,0.091 -2.4052,-1.5571 -1.10857,-3.2246 -8.54276,-9.757 -14.50241,-12.7433 -1.36935,-0.6861 -2.70768,-1.5101 -2.97406,-1.8311 -0.5141,-0.6195 -5.5051,-4.062 -5.88906,-4.062 -0.24568,0 -4.03335,-2.1467 -9.15808,-5.1904 -1.77366,-1.0534 -4.18867,-2.2153 -5.36674,-2.5819 -1.17803,-0.3667 -2.74309,-0.9712 -3.47793,-1.3434 -0.7348,-0.3722 -3.16198,-1.3969 -5.39365,-2.2771 -4.19845,-1.6559 -12.04899,-5.5147 -13.03518,-6.4072 -0.80789,-0.7311 -5.67425,-3.235 -7.85788,-4.0431 -5.61876,-2.0794 -6.78695,-2.6051 -8.71844,-3.9235 -1.49567,-1.0209 -2.48977,-2.0608 -3.39531,-3.5515 -0.70422,-1.1592 -1.66173,-2.3576 -2.12778,-2.663 -1.11023,-0.7274 -14.63093,-1.2819 -24.78176,-1.0162 -7.9865,0.209 -10.36313,0.6606 -17.41699,3.3097 -1.99567,0.7494 -4.81912,1.6435 -6.27433,1.9868 -1.45521,0.3432 -3.51896,0.939 -4.58611,1.324 -1.85498,0.6691 -3.24602,0.9199 -9.17223,1.6535 -1.4552,0.1801 -3.75708,0.5736 -5.11527,0.8745 -2.32477,0.5151 -4.25577,0.7183 -15.52223,1.6337 -10.91914,0.8871 -12.47567,1.0516 -14.81667,1.5659 -1.35819,0.2983 -4.13632,0.8675 -6.17361,1.2648 -2.03729,0.3973 -4.36979,0.8731 -5.18329,1.0575 -0.81354,0.1843 -2.40104,0.3386 -3.52778,0.3428 -1.12677,0 -3.39803,0.2247 -5.04726,0.49 -1.64924,0.2653 -5.22111,0.824 -7.9375,1.2414 -2.71639,0.4175 -5.49452,0.9105 -6.17361,1.0956 -0.6791,0.185 -1.69256,0.3374 -2.25214,0.3384 -1.43986,0 -3.74509,0.7462 -3.74509,1.2077 0,0.6766 1.52584,1.4064 3.35139,1.603 1.65383,0.1781 1.77038,0.2562 1.86817,1.2526 0.0686,0.6985 -0.14771,1.3333 -0.63108,1.8521 -1.07795,1.157 -2.80899,1.0264 -5.41309,-0.4086 -2.27729,-1.2548 -3.18555,-1.4209 -10.1115,-1.8489 -1.84326,-0.1139 -7.08201,-0.182 -11.64166,-0.1512 -6.84675,0.046 -8.80192,0.1758 -11.22857,0.745 -1.68155,0.3944 -4.19951,0.6892 -5.88712,0.6892 -1.62188,0 -3.95091,0.2293 -5.17562,0.5096 -1.22471,0.2803 -4.84613,0.6061 -8.04758,0.724 -11.64581,0.4289 -19.60004,0.8454 -20.52806,1.0751 -0.5219,0.1292 -2.14908,1.4081 -3.61598,2.8421 -2.590409,2.5322 -2.667078,2.6559 -2.667078,4.3052 0,0.9339 -0.198438,1.9471 -0.440972,2.2516 -1.168884,1.4675 -4.822801,3.1854 -11.428795,5.3732 -3.852115,1.2759 -7.480096,2.4929 -8.062179,2.7046 -1.816926,0.6608 -3.375988,1.0201 -8.255339,1.9027 -2.600159,0.4702 -4.897738,1.0252 -5.105735,1.2332 -0.207995,0.208 -0.333989,0.891 -0.279986,1.5179 0.054,0.6268 -0.129889,1.6821 -0.408651,2.345 -0.498009,1.1845 -0.399171,2.2035 0.364233,3.7552 5.312191,10.7977 9.78427,15.0661 17.566034,16.76571 1.409322,0.3079 5.004989,0.468 10.759723,0.4793 9.279625,0.018 14.837225,-0.5696 17.807615,-1.88361 1.79219,-0.7927 7.14606,-5.1864 7.43704,-6.1032 0.11487,-0.362 0.6002,-0.9145 1.0785,-1.2279 1.11999,-0.7338 2.34403,-0.233 3.12588,1.2789 0.5049,0.9763 0.71298,1.0736 2.29679,1.0736 0.95788,0 2.58099,0.3018 3.60692,0.6706 3.50932,1.2617 6.94949,1.6725 18.06145,2.1567 4.44525,0.1938 9.049,0.4985 10.23055,0.6773 1.18156,0.1788 6.67269,0.42 12.20248,0.536 l 10.05417,0.2108 1.78696,-0.8445 c 0.98284,-0.4646 2.33221,-1.3134 2.99861,-1.8863 3.12568,-2.6871 4.51852,-2.9399 5.64829,-1.025 0.63087,1.0692 0.95352,1.2437 2.93871,1.5894 1.2265,0.2136 5.30754,0.463 9.069,0.5542 6.44892,0.1563 9.18506,0.3277 11.86875,0.7435 1.49811,0.2321 2.35296,1.4664 1.879,2.71311 -0.44157,1.1614 -1.47711,1.4717 -3.11153,0.9322 -0.82279,-0.2715 -3.79409,-0.4474 -8.02016,-0.4749 -3.69224,-0.024 -8.22131,-0.2405 -10.06458,-0.4813 -1.84326,-0.2407 -4.5811,-0.6022 -6.08407,-0.8033 l -2.73269,-0.36561 -2.38259,1.33511 -2.38259,1.3352 -10.40695,-0.073 c -5.72382,-0.04 -13.58194,-0.3116 -17.46249,-0.6033 -3.88056,-0.2917 -9.87747,-0.6928 -13.32648,-0.8914 -4.39324,-0.2529 -7.13963,-0.5941 -9.17222,-1.13921 -2.15694,-0.5786 -3.90833,-0.78 -6.82638,-0.7851 -4.9352,-0.01 -5.15751,0.1331 -4.87843,3.10981 0.16515,1.7616 0.0798,2.3369 -0.46541,3.1349 -1.4231,2.083 -4.45358,3.596 -10.70941,5.3465 -1.62373,0.4544 -5.09536,1.4916 -7.714735,2.3049 -7.413558,2.302 -16.107817,4.8959 -19.402779,5.7889 -1.649236,0.4469 -6.649861,1.8888 -11.1125,3.2041 -4.46264,1.3154 -9.780765,2.8291 -11.818057,3.3637 -2.037292,0.5347 -4.894792,1.3063 -6.350001,1.7148 -1.455208,0.4086 -4.947708,1.3874 -7.761111,2.1751 -2.813403,0.7878 -5.829654,1.6492 -6.702779,1.9142 -0.873125,0.2649 -4.1275,1.2152 -7.231945,2.1117 -3.104444,0.8964 -6.755695,2.0082 -8.113889,2.4704 -1.358195,0.4623 -4.691945,1.424 -7.408334,2.1373 -2.716389,0.7132 -6.8438886,1.8551 -9.1722226,2.5375 -2.328333,0.6824 -5.42395902,1.5491 -6.879167,1.9262 -1.455209,0.3769 -3.836459,1.0569 -5.291667,1.5111 -1.455209,0.454 -3.6777094,1.1015 -4.9388894,1.4387 -1.261181,0.3372 -3.801181,1.0719 -5.644445,1.6326 -1.843264,0.5607 -5.57389,1.6658 -8.290279,2.4557 -2.716389,0.7899 -5.732639,1.6758 -6.702778,1.9686 -0.970139,0.2928 -3.43076,1.0091 -5.46806,1.5918 -2.03729,0.5826 -4.41854,1.2674 -5.29166,1.5216 -3.98804,1.1612 -7.21053,2.0763 -11.28889,3.2058 -2.42535,0.6717 -5.1241,1.4369 -5.99723,1.7005 -0.87312,0.2636 -2.54,0.7355 -3.70416,1.0487 -6.76472,1.8202 -14.94314,4.0916 -20.81389,5.7808 -6.09526,1.7538 -7.07049,1.9384 -10.75973,2.0368 -2.23132,0.06 -4.447292,0.026 -4.924382,-0.075 z m 7.122702,-3.3245 c 3.8544,-0.5829 9.86817,-2.0112 14.08682,-3.3456 2.06884,-0.6543 6.59322,-1.919 10.05417,-2.8103 3.46095,-0.8914 7.56264,-2.0208 9.11486,-2.51 2.70538,-0.8526 4.87961,-1.4653 14.64028,-4.126 2.42535,-0.6611 6.3941,-1.7793 8.81945,-2.485 2.425345,-0.7057 5.83847,-1.6808 7.58472,-2.1668 1.74625,-0.486 4.683126,-1.3419 6.52639,-1.902 1.843264,-0.56 5.177014,-1.5217 7.408334,-2.1371 2.231319,-0.6154 6.0413194,-1.7245 8.4666674,-2.4646 7.49918098,-2.2884 15.134997,-4.5085 20.1083346,-5.8463 2.619375,-0.7046 6.50875,-1.8047 8.643056,-2.4446 2.134306,-0.64 5.229931,-1.5593 6.879167,-2.0429 1.649236,-0.4837 5.538612,-1.6301 8.643056,-2.5475 10.677032,-3.1554 16.42398,-4.7851 28.416426,-8.0586 3.211255,-0.8765 6.46563,-1.8276 7.231945,-2.1135 0.766314,-0.2859 2.583924,-0.7896 4.039132,-1.1194 1.455209,-0.3298 4.312709,-1.1269 6.350001,-1.7714 2.037292,-0.6444 4.974167,-1.5123 6.526389,-1.9286 8.235503,-2.2084 24.80831,-8.4586 25.15046,-9.485 0.1718,-0.5154 0.19766,-0.5186 -5.3949,0.6708 -1.93742,0.4121 -5.23764,0.7422 -8.46667,0.8468 -4.720601,0.1529 -5.78659,0.3107 -9.877779,1.4622 -5.720789,1.6102 -8.936885,2.4198 -11.594772,2.9187 -1.138376,0.2136 -4.710251,1.1768 -7.937501,2.1402 -3.22725,0.9634 -7.931478,2.3014 -10.45384,2.9732 -4.456959,1.1872 -18.627539,5.4986 -22.683391,6.9015 -2.339051,0.8091 -10.270325,3.2742 -20.53189,6.3814 -3.97757,1.2045 -8.1844446,2.4905 -9.3486116,2.858 -1.967749,0.621 -3.623141,1.0841 -11.994445,3.3552 -3.944645,1.0702 -17.9851704,5.3226 -26.6347244,8.0668 -0.873126,0.277 -4.445001,1.2362 -7.937504,2.1315 -8.03577,2.0601 -12.78452,3.3656 -19.22639,5.2857 -2.8134,0.8386 -7.2584,2.1043 -9.87778,2.8126 -2.61937,0.7083 -6.74687,1.9029 -9.17222,2.6546 -2.42535,0.7518 -5.67972,1.6895 -7.23194,2.0839 -1.55223,0.3944 -3.93348,1.1059 -5.29167,1.581 -3.09903,1.0841 -7.5198,1.5009 -10.08458,0.9509 -4.851092,-1.0404 -9.034892,-4.3404 -10.513662,-8.2928 -0.39385,-1.0526 -1.77576,-3.9493 -3.07091,-6.4369 -1.29514,-2.4877 -3.45983,-6.6662 -4.81042,-9.2856 -1.35059,-2.6194 -2.58348,-4.9213 -2.73975,-5.1153 -0.15628,-0.194 -1.66594,-3.1309 -3.3548,-6.5264 -1.68886,-3.3955 -3.43343,-6.5705 -3.87681,-7.0555 -0.44338,-0.4851 -1.30699,-2.0726 -1.91912,-3.5278 -1.20321,-2.8603 -5.42932,-11.3739 -7.13784,-14.37931 -0.5802,-1.0206 -1.20109,-1.7653 -1.37976,-1.6549 -0.17867,0.1105 -0.32485,1.438 -0.32485,2.95001 0,2.359 0.12301,2.9195 0.86651,3.948 1.06884,1.4786 1.53255,2.3202 4.93683,8.9598 1.49223,2.9104 2.99745,5.6092 3.34493,5.9972 0.74684,0.8341 2.0831,3.3287 8.18661,15.2834 2.50852,4.9133 4.97064,9.5823 5.47136,10.3755 1.60008,2.5347 6.82709,13.0521 6.82709,13.7369 0,0.997 2.73996,3.7643 4.74834,4.7959 1.46063,0.7502 4.724822,1.6174 6.798592,1.8063 0.23893,0.022 1.5883,-0.135 2.99861,-0.3483 z m 0.39311,-9.3136 c 0.69656,-0.291 1.65445,-0.5291 2.12865,-0.5291 0.4742,0 2.74148,-0.5579 5.03841,-1.2396 7.67338,-2.2777 22.68529,-6.4757 30.98735,-8.6655 8.95111,-2.3611 32.028256,-9.1302 44.626393,-13.09 1.8432644,-0.5794 5.5738894,-1.6604 8.2902784,-2.4022 2.71638898,-0.7418 6.764515,-1.9029 8.995834,-2.5803 2.23132,-0.6775 5.3269446,-1.5703 6.8791666,-1.984 1.552223,-0.4138 4.806598,-1.4492 7.231945,-2.301 5.027253,-1.7655 12.909329,-4.2497 18.344446,-5.7815 5.778642,-1.6287 14.292038,-4.1386 22.57778,-6.6563 4.171598,-1.2677 8.457848,-2.5358 9.525001,-2.8182 3.637622,-0.9624 7.055555,-2.3107 7.055555,-2.7831 0,-0.2577 -0.754062,-0.896 -1.675694,-1.4185 -3.232471,-1.8323 -5.216127,-3.32601 -6.624098,-4.98781 -5.946624,-7.0188 -8.955314,-13.0974 -8.528686,-17.231 0.216271,-2.0955 -0.0182,-2.4924 -1.023024,-1.7318 -1.646389,1.2462 -4.035809,0.059 -5.235621,-2.6019 -1.480916,-3.2841 1.217567,-6.1901 7.741289,-8.3366 3.951352,-1.3001 7.134882,-2.5489 9.291522,-3.6448 2.785092,-1.4153 8.800748,-3.8036 10.287646,-4.0844 9.608055,-1.8143 12.466586,-2.7708 15.981635,-5.3476 1.38315,-1.014 1.653766,-1.3846 1.474231,-2.0189 -0.364617,-1.2883 -5.066645,-11.0104 -8.053621,-16.652 -7.317582,-13.821 -6.991234,-13.2817 -8.68933,-14.3586 -3.561451,-2.2587 -8.62673,-2.9783 -12.076766,-1.7157 -1.025924,0.3754 -2.579691,0.8646 -3.452816,1.0872 -0.873125,0.2225 -2.250769,0.7884 -3.061431,1.2576 -0.810662,0.4692 -1.900481,0.8531 -2.421823,0.8531 -1.18817,0 -10.548762,2.7172 -16.388971,4.7575 -2.425347,0.8472 -5.362222,1.8007 -6.526389,2.1187 -2.233701,0.6102 -15.07737,4.5743 -22.225002,6.8596 -5.466761,1.7478 -11.6033446,3.584 -18.2905516,5.4729 -2.940057,0.8304 -8.520561,2.5018 -12.4011174,3.7142 -16.546587,5.1694 -19.121929,5.9558 -20.461112,6.2484 -1.290747,0.2819 -1.418283,0.4126 -1.495207,1.5317 -0.04625,0.6729 0.271248,2.2553 0.705556,3.5165 0.737732,2.1423 0.865681,2.3003 1.946011,2.4043 0.635998,0.061 3.175998,-0.4736 5.644444,-1.1885 2.468447,-0.715 5.281836,-1.4985 6.251975,-1.7412 0.970139,-0.2427 6.050139,-1.8208 11.2888894,-3.5068 13.681165,-4.4032 14.060711,-4.4366 15.380262,-1.3524 1.465972,3.4264 2.990519,6.6921 4.325257,9.2651 0.7548776,1.4552 1.6727596,3.5114 2.0397396,4.5693 0.366981,1.0579 0.960925,2.2485 1.319873,2.6458 0.358948,0.3973 0.74144,1.1987 0.849983,1.7808 0.108542,0.582 1.535042,3.8364 3.169997,7.2319 1.634956,3.3955 4.248539,8.8724 5.807958,12.1708 6.382936,13.50121 6.681982,14.35571 5.548493,15.85431 -0.326994,0.4323 -0.517949,1.4968 -0.517949,2.8874 0,3.0593 -0.387251,3.8954 -2.012541,4.3451 -0.736367,0.2038 -2.846973,0.7796 -4.690237,1.2795 -1.843264,0.5 -4.542014,1.2798 -5.997223,1.7331 -1.455208,0.4533 -6.6145836,1.9683 -11.4652776,3.3667 -4.85069502,1.3984 -10.248196,2.9812 -11.994446,3.5175 -1.74625,0.5363 -4.4450004,1.3259 -5.9972224,1.7547 -1.552223,0.4289 -4.11546,1.1623 -5.696085,1.6298 -4.064889,1.2023 -4.512635,1.1539 -5.198865,-0.5611 -0.483517,-1.2085 -0.717039,-1.4111 -1.625805,-1.4111 -1.255476,0 -1.365627,0.5761 -0.355635,1.8601 1.329267,1.6899 0.960931,1.9812 -3.908436,3.0909 -1.827929,0.4165 -4.633941,1.0709 -6.235588,1.4542 -1.60164,0.3832 -3.19746,0.6062 -3.54628,0.4955 -0.34881,-0.1107 -0.94338,0.033 -1.32126,0.3183 -2.79946,2.1172 -5.71079,-1.8653 -11.33766,-15.5093 -2.40074,-5.8213 -5.4588,-12.9238 -7.4795,-17.37161 -0.99101,-2.1813 -1.80183,-4.0386 -1.80183,-4.1273 0,-0.089 -0.9525,-2.1617 -2.11667,-4.6067 -2.15902,-4.5342 -2.4289,-5.6365 -1.70927,-6.9812 0.25972,-0.4853 0.37901,-2.375 0.3291,-5.2133 -0.0748,-4.2551 -0.0404,-4.4974 0.77906,-5.4773 0.47154,-0.564 0.97162,-1.3904 1.1113,-1.8365 0.26119,-0.8343 2.31762,-1.9299 6.15419,-3.2789 1.04603,-0.3678 2.1176,-0.8478 2.38125,-1.0666 1.0711,-0.8889 0.0371,-4.5448 -1.28548,-4.5448 -1.94316,0 -10.96173,2.614 -23.81154,6.9016 -4.8507,1.6185 -10.48632,3.3404 -12.52361,3.8265 -2.0373,0.486 -5.08204,1.3586 -6.766102,1.9392 -1.68406,0.5805 -4.62094,1.4705 -6.52639,1.9779 -1.90545,0.5073 -4.41696,1.2275 -5.58113,1.6003 -1.16416,0.3729 -3.62479,1.0595 -5.46805,1.5259 -5.3861,1.3627 -12.37756,3.3862 -14.33193,4.148 -2.60813,1.0166 -4.3653,3.0671 -4.3653,5.0941 0,1.0765 5.96771,13.47541 9.32626,19.37681 1.21465,2.1343 3.28473,5.9443 4.60016,8.4667 1.31543,2.5223 2.67372,5.0623 3.01843,5.6444 0.3447,0.5821 2.99932,5.5827 5.89915,11.1125 2.89984,5.5298 5.76568,10.8479 6.36855,11.8181 2.01018,3.2348 3.57712,6.5173 3.36944,7.0585 -0.11295,0.2943 2.2e-4,0.7829 0.25148,1.0856 0.50052,0.6031 2.81562,1.8606 4.208202,2.2857 1.49879,0.4576 4.43744,0.356 5.76643,-0.1993 z m 49.66347,-29.551 c -0.34842,-0.3458 -0.38894,-0.3053 -0.19749,0.1975 0.13248,0.3479 0.32974,0.5437 0.43836,0.4351 0.10861,-0.1086 2.2e-4,-0.3933 -0.24087,-0.6326 z m -2.01126,-5.4713 c -0.53573,-1.4987 -1.5823,-4.0315 -2.32572,-5.6286 -0.74343,-1.597 -1.99386,-4.5339 -2.77874,-6.5264 -0.78489,-1.9924 -1.72981,-4.337 -2.09983,-5.2102 -0.37002,-0.8731 -1.17648,-2.7781 -1.79215,-4.23331 -0.61566,-1.4552 -2.29952,-5.2652 -3.74191,-8.4667 -3.87555,-8.6019 -4.04875,-8.9032 -4.72826,-8.2236 -0.31565,0.3156 1.22176,4.6152 3.00363,8.4 0.45673,0.9702 1.4998,3.3433 2.31793,5.2736 0.81812,1.9303 2.39938,5.35061 3.5139,7.60071 1.11451,2.2501 2.39266,5.1951 2.84033,6.5445 0.44766,1.3494 1.74142,4.3952 2.87501,6.7685 1.13359,2.3733 2.06107,4.4183 2.06107,4.5445 0,0.1261 0.34781,0.7922 0.77293,1.48 1.14803,1.8576 1.18643,0.7671 0.0818,-2.323 z m 14.947713,0.4755 c 7.579092,-2.4626 12.641514,-4.011 19.651713,-6.0109 3.1044454,-0.8857 6.2296474,-1.8406 6.9448974,-2.1221 0.71525,-0.2814 2.858375,-0.9163 4.76249998,-1.4107 1.90412502,-0.4943 5.04954902,-1.3762 6.98982702,-1.9597 1.940278,-0.5836 5.9884026,-1.7806 8.9958336,-2.6601 3.00743,-0.8795 5.842141,-1.8433 6.299355,-2.1417 1.158653,-0.7563 0.934047,-1.5792 -2.391364,-8.76131 -1.528763,-3.3019 -3.844001,-8.3846 -5.144971,-11.295 -1.300971,-2.9104 -3.375283,-7.4398 -4.609582,-10.0652 -1.2342986,-2.6255 -2.4744646,-5.4036 -2.7559246,-6.1736 -0.899467,-2.4609 -4.653316,-10.9569 -5.389122,-12.1972 -0.634319,-1.0692 -0.857956,-1.1884 -2.09059702,-1.1141 -0.759163,0.046 -4.55529598,1.1076 -8.43585198,2.3596 -3.8805564,1.2521 -8.7800784,2.6956 -10.8878304,3.2078 -5.457928,1.3265 -12.645857,3.6739 -13.332207,4.354 -0.543268,0.5384 -0.524863,0.8612 0.264329,4.6356 0.466538,2.2314 1.281426,5.4064 1.810865,7.0556 0.850092,2.6481 0.963524,3.5553 0.970393,7.7611 0.0087,5.3332 -0.105749,5.7767 -2.56866,9.9525 -1.306223,2.2147 -1.856758,2.8214 -2.960794,3.2632 -1.809282,0.7239 -1.968972,0.7066 -4.670622,-0.5055 -2.93097,-1.315 -4.42853,-2.4506 -5.71511,-4.3334 -0.5557,-0.8133 -2.05619,-2.698 -3.33442,-4.1882 l -2.32404,-2.7096 -0.78643,-5.061 c -1.47036,-9.4626 -1.7749,-10.5309 -3.00058,-10.5264 -0.84261,0 -4.49578,1.0924 -5.94059,1.7713 -0.53358,0.2508 -0.97014,0.6537 -0.97014,0.8954 0,0.2416 1.20486,3.1133 2.67747,6.3815 1.4726,3.2682 3.3072,7.4503 4.07689,9.2935 0.76969,1.8433 1.61571,3.8277 1.88003,4.4098 1.73426,3.819 4.87428,11.09741 8.82722,20.46111 3.45033,8.173 4.2386,9.3486 6.26865,9.3486 0.54752,0 3.647505,-0.8617 6.888863,-1.9149 z m 32.4938804,-17.8407 c -1.67746902,-1.9894 -2.26620202,-2.1257 -4.60156,-1.0661 -2.022355,0.9177 -2.861694,0.8896 -4.081166,-0.1365 -0.974422,-0.8199 -1.075323,-0.8329 -2.8668174,-0.3681 -3.030608,0.7861 -4.286526,-0.1675 -3.779591,-2.86961 0.298655,-1.592 0.02364,-1.5621 -3.930809,0.4267 -3.616562,1.81891 -4.860033,1.88481 -5.26311,0.2788 -0.170892,-0.6809 0.220949,-1.7572 1.599163,-4.3926 1.592612,-3.0455 3.555334,-7.9551 3.555334,-8.8936 0,-0.1743 -0.872258,0.1822 -1.938352,0.7922 -3.170107,1.8137 -4.941144,0.7879 -2.237208,-1.2959 0.710872,-0.5479 2.774623,-2.1968 4.586112,-3.6643 4.200007,-3.4025 4.042047,-3.3213 5.104109,-2.6254 1.134908,0.7436 1.095336,0.9038 -1.758107,7.1146 -2.098573,4.5678 -3.343931,8.0578 -2.998551,8.4032 0.08239,0.082 1.22277,-0.2396 2.534172,-0.7157 4.338257,-1.5747 6.7792434,-0.9531 6.5241144,1.6613 -0.11158,1.1434 -0.07606,1.1785 1.229671,1.2153 0.73951,0.021 1.771385,0.3504 2.293055,0.7323 0.777364,0.5691 1.362185,0.6676 3.241542,0.5455 2.14008698,-0.139 2.384541,-0.076 3.664479,0.9434 0.758754,0.6043 1.791035,1.09231 2.310695,1.09231 1.941205,0 2.370194,1.721 0.872634,3.5007 -1.334251,1.5857 -2.284564,1.4269 -4.059809,-0.6785 z M -34.649266,982.49829 c 0.240923,-0.3819 0.139937,-1.4086 -0.327575,-3.3304 l -0.675869,-2.7782 -2.187498,-0.1764 c -2.69327,-0.2172 -3.02994,-0.5109 -2.65678,-2.3183 0.23373,-1.1319 0.54213,-1.519 1.68327,-2.1126 0.99654,-0.5184 1.42801,-0.9873 1.50485,-1.6354 0.0985,-0.8305 -0.4747,-3.55 -2.95957,-14.042 -0.4825,-2.0373 -1.21008,-5.1329 -1.61685,-6.8792 -0.74002,-3.1769 -2.63374,-10.7435 -2.97982,-11.9062 -0.24627,-0.8274 -1.48163,-0.7916 -4.72942,0.1372 -1.5725,0.4497 -3.47732,0.7303 -4.71408,0.6944 l -2.07535,-0.06 0.234,1.5105 c 0.1287,0.8307 0.55543,2.8598 0.94829,4.509 2.29703,9.6431 2.49753,10.0275 4.9436,9.4779 1.68861,-0.3794 2.64736,-0.1613 3.75744,0.8547 0.95244,0.8718 1.03425,2.3932 0.17069,3.1747 -0.34268,0.3102 -1.40775,0.7397 -2.36682,0.9547 -3.09403,0.6934 -3.16013,1.0579 -0.89585,4.9408 0.73545,1.2612 1.44417,2.7693 1.57494,3.3514 0.13077,0.5821 1.08456,2.5665 2.11953,4.4097 1.03497,1.8433 2.06194,3.907 2.28215,4.5861 0.54672,1.686 1.03588,2.2495 2.59269,2.9864 0.73271,0.3468 1.97676,1.3646 2.76456,2.2617 1.93024,2.1981 2.871094,2.5603 3.609472,1.3897 z m 98.448891,-8.918 c 0.987192,-0.284 3.798916,-0.8315 6.248277,-1.2166 3.821296,-0.6009 10.799904,-2.559 14.596619,-4.0957 0.582083,-0.2356 2.963333,-1.1843 5.291667,-2.1082 2.328333,-0.9239 4.511146,-1.922 4.850695,-2.2179 0.811297,-0.7069 0.781963,-1.5814 -0.07919,-2.3607 -0.573324,-0.5189 -0.86977,-0.5623 -1.675694,-0.2453 -0.905066,0.3559 -3.010888,0.8303 -8.916643,2.0085 -2.105875,0.4202 -4.370441,1.4401 -13.758334,6.1966 -1.455208,0.7373 -4.074584,1.8494 -5.820834,2.4714 -3.463953,1.2339 -4.838862,2.0843 -3.369797,2.0843 0.461088,0 1.646044,-0.2324 2.633236,-0.5164 z m -119.552883,-40.0579 c 0.63216,-0.3907 2.07965,-0.8783 3.21663,-1.0835 1.13699,-0.2053 2.92201,-0.6174 3.96672,-0.916 l 1.89947,-0.5427 -0.20816,-2.2293 c -0.11449,-1.226 -0.62225,-3.8676 -1.12835,-5.8702 -0.5061,-2.0026 -1.77024,-7.0356 -2.8092,-11.1845 -1.03897,-4.1489 -2.13098,-7.7854 -2.42671,-8.0812 -0.46726,-0.4672 -0.85223,-0.4787 -2.93905,-0.088 -4.79777,0.899 -5.21719,0.8866 -6.05513,-0.1786 -1.6634,-2.1147 -0.64536,-3.73995 2.96371,-4.73153 3.87416,-1.06437 4.39423,-1.3207 4.39423,-2.16581 0,-0.69332 -0.93419,-4.97308 -2.9957,-13.72415 -1.83864,-7.805 -4.19194,-16.43849 -4.60207,-16.88356 -0.4556,-0.49442 -1.15752,-0.38093 -7.61904,1.23166 -1.43798,0.35888 -2.24917,0.39662 -2.93338,0.13649 -1.24849,-0.4747 -1.25259,-0.4735 -1.25259,0.36491 0,1.14183 2.08191,8.86273 2.53797,9.41225 0.3149,0.37941 0.99292,0.44507 2.90515,0.28124 2.89147,-0.24773 4.06142,0.18309 4.59164,1.69075 0.51541,1.46558 -0.063,2.061 -3.01111,3.09979 -2.50533,0.88276 -2.61816,0.97067 -2.71567,2.11667 -0.0559,0.65758 0.28871,2.70376 0.76593,4.54702 0.47721,1.84326 2.16138,8.43139 3.7426,14.64027 1.58122,6.2089 3.15279,11.7651 3.49236,12.3472 0.54746,0.9385 0.81444,1.0626 2.35636,1.0953 0.95641,0.02 2.01056,0.06 2.34255,0.088 0.92931,0.079 2.04222,1.4843 2.04222,2.5791 0,1.1444 -0.85941,1.8089 -3.10497,2.4008 -1.83564,0.4838 -2.07003,0.9901 -1.56757,3.3856 0.5288,2.521 2.53767,8.9719 2.79397,8.9719 0.11428,0 0.72502,-0.3197 1.35719,-0.7104 z m -18.18787,-70.24485 c 0.55975,-0.41385 2.97426,-1.24728 5.36557,-1.85209 4.03152,-1.01963 4.35517,-1.16381 4.44844,-1.98158 0.12403,-1.08734 -1.05175,-6.43615 -3.45087,-15.69862 -1.00512,-3.88055 -1.96169,-7.69972 -2.12571,-8.48709 -0.58443,-2.80543 -1.00069,-3.33096 -2.63846,-3.33096 -0.81115,0 -2.2541,0.2364 -3.20657,0.52536 -2.40607,0.72989 -3.48027,0.6641 -4.57841,-0.2805 -1.18635,-1.02044 -1.26571,-2.58893 -0.17566,-3.47161 0.42353,-0.34297 2.14994,-1.04299 3.83646,-1.55561 3.88436,-1.18071 4.04935,-1.31798 3.75923,-3.12741 -0.56427,-3.51921 -4.85113,-20.22228 -5.57537,-21.72356 -0.51522,-1.068 -1.8734,-1.12191 -5.76616,-0.22885 -2.99273,0.68658 -4.19751,0.40756 -4.56513,-1.05713 -0.3727,-1.48495 0.50463,-2.69304 2.34783,-3.23297 0.86741,-0.2541 2.52961,-0.81537 3.69378,-1.24731 1.74354,-0.64686 2.13516,-0.94188 2.2216,-1.67347 0.13312,-1.12681 -0.40257,-3.57194 -2.86965,-13.09845 -1.0913,-4.21398 -1.89556,-7.89274 -1.78723,-8.17502 0.11245,-0.29306 -0.0917,-0.66771 -0.47582,-0.8733 -1.01556,-0.54351 -11.59292,-0.67698 -12.11701,-0.1529 -0.47701,0.47701 0.22496,4.78227 1.46833,9.00537 0.83819,2.84692 1.41086,3.27744 3.61972,2.72124 2.19769,-0.55338 3.39878,-0.31871 4.25348,0.83104 0.67068,0.9022 0.6887,1.06495 0.21128,1.90863 -0.34376,0.60748 -1.13828,1.13114 -2.32755,1.53406 -3.26133,1.10491 -3.42393,1.25775 -3.18587,2.99457 0.28638,2.0894 3.99126,16.22574 4.55792,17.39121 0.44443,0.91408 0.52619,0.93486 3.20775,0.81548 2.4687,-0.10993 2.83943,-0.0401 3.60474,0.67885 1.69486,1.59223 0.655,3.12374 -2.7743,4.08594 -1.14505,0.32128 -2.17068,0.81548 -2.27917,1.0982 -0.20704,0.53954 0.49696,3.96557 1.6113,7.84147 0.86815,3.0196 2.24355,8.38398 3.43436,13.39483 0.52886,2.2254 1.18735,4.58657 1.46331,5.24701 l 0.50173,1.20082 2.79174,-0.24352 c 2.66999,-0.23291 2.83053,-0.20476 3.68124,0.64597 1.81767,1.81769 0.76685,3.59861 -2.70853,4.59041 -1.10578,0.31556 -2.10549,0.72743 -2.22158,0.91528 -0.27935,0.45198 0.37858,4.00499 1.4702,7.93948 0.4845,1.74625 1.11012,4.00844 1.39028,5.02708 0.28016,1.01865 0.59075,1.85209 0.6902,1.85209 0.0994,0 0.6388,-0.3386 1.19856,-0.75244 z m -19.5182,-51.63542 c 0.21663,-0.56451 -1.75061,-9.10519 -2.53841,-11.02035 -0.61791,-1.5022 -1.08562,-1.27032 -2.85275,1.41425 -2.642682,4.01465 -3.358512,5.48855 -2.994042,6.16469 0.64489,1.19634 2.007642,2.16404 4.279312,3.03879 2.67027,1.02824 3.82247,1.14124 4.10589,0.40262 z m -13.807282,-3.36204 c 0.75258,-0.27785 8.361602,-11.22366 9.204452,-13.24084 0.39277,-0.94008 0.4216,-1.56157 0.13229,-2.85253 -0.55716,-2.48615 -2.442682,-9.33759 -2.877342,-10.45544 -0.7671,-1.97281 -0.92043,-1.64755 -5.38956,11.43277 -1.03551,3.03076 -2.06647,6.44388 -2.29102,7.58473 -0.22455,1.14085 -0.73678,3.21617 -1.13829,4.61186 -1.04559,3.63453 -0.70819,4.05201 2.35947,2.91945 z m 36.169462,-5.02729 c 0.2964,-0.23636 1.28556,-1.38829 2.19812,-2.55979 1.61383,-2.07176 2.41602,-3.90289 3.78054,-8.62969 0.36408,-1.26118 1.12803,-3.64243 1.69766,-5.29167 2.38121,-6.89419 3.63885,-11.37751 3.53481,-12.6011 -0.10775,-1.26724 -0.12304,-1.27829 -2.73194,-1.97663 -2.06614,-0.55305 -2.9038,-0.62748 -3.94238,-0.35026 -0.99205,0.26479 -1.60939,0.22918 -2.4917,-0.14373 -0.95186,-0.40231 -2.05906,-0.43299 -5.87527,-0.16283 -2.5863,0.1831 -4.8522,0.48274 -5.03533,0.66587 -0.49895,0.49895 1.84335,10.9679 5.39066,24.09368 2.03208,7.51915 2.24197,7.9393 3.47483,6.95615 z m 11.94157,-3.60952 c 1.38805,-1.5809 1.8025,-2.42083 3.21806,-6.52163 0.63627,-1.84326 1.70873,-4.85951 2.38324,-6.70277 0.67451,-1.84327 1.43238,-4.06577 1.68415,-4.93889 0.25178,-0.87313 0.86197,-2.6846 1.35599,-4.0255 0.49401,-1.3409 0.82989,-2.54853 0.74639,-2.68363 -0.24173,-0.39113 -4.14267,-1.12617 -5.28037,-0.99496 -0.93244,0.10753 -1.1355,0.38166 -2.04824,2.7652 -0.55725,1.45521 -1.38813,4.07458 -1.8464,5.82083 -0.45827,1.74625 -1.39528,4.56547 -2.08224,6.26494 -1.39986,3.46311 -2.67355,8.11139 -2.67355,9.75703 0,1.37343 1.09571,2.49887 2.4329,2.49887 0.72683,0 1.33595,-0.35783 2.11007,-1.23949 z m 17.37361,-1.60503 c 3.67265,-1.84658 5.02176,-3.11196 6.508487,-6.10454 2.20079,-4.42991 5.119525,-13.75617 4.4918,-14.3527 -0.364893,-0.34676 -8.630837,-1.98183 -12.144427,-2.40227 -3.75967,-0.44988 -4.54432,-0.25331 -4.54598,1.1389 -7e-4,0.60797 -0.30332,1.60067 -0.67243,2.20599 -0.96355,1.58018 -5.67625,16.60106 -5.67625,18.09204 0,1.97048 3.01262,3.28429 6.85356,2.98888 1.89839,-0.14598 3.05568,-0.49559 5.18524,-1.5663 z m -38.84991,-28.89906 c 1.64923,-0.22975 3.81718,-0.31562 4.81765,-0.19082 1.00047,0.1248 2.8039,0.11548 4.00763,-0.0207 2.04726,-0.23162 2.21974,-0.32217 2.67101,-1.4022 0.72845,-1.74342 1.82362,-7.37978 2.06036,-10.60374 0.24446,-3.3292 1.76163,-12.7709 2.54093,-15.81286 0.84901,-3.3141 0.10363,-5.45502 -2.33925,-6.71886 -0.7866,-0.40696 -12.6067,-1.20921 -14.11111,-0.95775 -0.29104,0.0486 -2.35479,0.10369 -4.58611,0.1223 -2.63166,0.0219 -5.17239,0.28015 -7.23195,0.73491 -1.74625,0.38558 -3.99195,0.82651 -4.99044,0.97984 -0.9985,0.15332 -2.10975,0.37004 -2.469452,0.48159 -0.3597,0.11155 -1.82135,0.28913 -3.24812,0.39462 -5.91408,0.4373 -10.24943,1.42565 -13.98643,3.18857 -0.97014,0.45766 -2.18113,0.91839 -2.69109,1.02384 -1.5977,0.33038 -4.83308,3.88049 -6.25233,6.86054 -1.07249,2.25195 -1.28069,3.06936 -1.28363,5.03972 -0.003,2.17931 0.15175,2.65757 2.11316,6.52015 2.70694,5.33074 4.62122,7.37646 8.11493,8.67211 3.94057,1.46137 5.46071,1.64567 15.32749,1.85825 5.132222,0.11057 9.376922,0.24665 9.432662,0.30239 0.25816,0.25816 9.43048,-0.0994 12.10409,-0.47189 z m -27.217592,-45.12437 c 0.90266,-0.94946 3.03026,-2.62636 4.728,-3.72644 1.69775,-1.10009 3.08681,-2.2089 3.08681,-2.46403 0,-0.25512 -0.31797,-0.68166 -0.7066,-0.94786 -0.4393,-0.30091 -0.95522,-1.41817 -1.36382,-2.95345 -0.36147,-1.35819 -1.4657,-5.40631 -2.45385,-8.99583 -0.98816,-3.58951 -1.9706,-7.63307 -2.1832,-8.98567 -0.21261,-1.3526 -0.4447,-2.51742 -0.51575,-2.58847 -0.0711,-0.0711 -1.13396,0.19509 -2.36202,0.59144 -1.22805,0.39635 -3.38319,0.90072 -4.7892,1.12083 -1.40602,0.22011 -2.64593,0.54507 -2.75537,0.72215 -0.25507,0.41272 2.51125,11.34511 3.21523,12.70646 0.51793,1.00156 0.59601,1.02624 2.96021,0.93583 2.15374,-0.0824 2.53131,0.004 3.33992,0.7624 1.16335,1.09135 1.2182,2.64035 0.11792,3.33064 -0.43656,0.27389 -1.42875,0.69511 -2.20486,0.93605 -2.18405,0.67802 -2.39081,0.9545 -2.09051,2.79535 0.14425,0.88424 0.2967,2.56021 0.33877,3.72438 0.0794,2.19687 0.94919,4.7625 1.61458,4.7625 0.21039,0 1.12107,-0.77683 2.02374,-1.72628 z m 16.428622,-9.55007 c 1.5618,-0.66947 1.61674,-0.74449 1.61674,-2.20755 0,-2.19234 3.64099,-13.14908 6.07247,-18.27377 2.42473,-5.11045 3.41765,-7.61033 4.34064,-10.92844 0.51273,-1.84326 1.2219,-3.82764 1.57593,-4.40972 0.35403,-0.58209 0.88007,-1.86373 1.16898,-2.8481 0.2889,-0.98438 0.91897,-2.57188 1.40016,-3.52778 0.86081,-1.71007 2.13177,-6.0864 3.98814,-13.73246 0.51819,-2.1343 1.30014,-5.15055 1.73767,-6.70277 0.43754,-1.55223 0.90484,-4.09223 1.03846,-5.64445 0.13362,-1.55222 0.3971,-3.83128 0.58551,-5.06458 0.18841,-1.23331 0.41662,-3.77331 0.50714,-5.64445 0.15323,-3.16769 0.79573,-8.70756 1.57646,-13.59285 0.18255,-1.14229 0.24966,-2.20998 0.14912,-2.37265 -0.10054,-0.16267 -1.56488,-1.01172 -3.2541,-1.88677 -2.68466,-1.39071 -3.72624,-2.2467 -8.27391,-6.79957 -6.46898,-6.47639 -7.38407,-7.77044 -8.54781,-12.08774 -1.92782,-7.15182 -2.10634,-8.38147 -2.04565,-14.09039 0.057,-5.3654 0.08,-5.51532 1.53085,-9.96686 1.14128,-3.5018 1.97992,-5.31651 3.72429,-8.05881 1.23823,-1.9466 2.63469,-4.28776 3.10324,-5.20258 1.71481,-3.34806 5.09982,-5.91716 10.08353,-7.65302 4.64027,-1.61624 11.02145,-2.50408 20.28472,-2.82228 13.12608,-0.4509 14.51734,-0.5139 19.050002,-0.86269 2.522362,-0.1941 5.379862,-0.50171 6.350001,-0.68359 0.970139,-0.18188 2.954514,-0.43502 4.409722,-0.56255 1.455209,-0.12752 3.836459,-0.45172 5.291668,-0.72044 1.455208,-0.26871 3.331573,-0.59299 4.1697034,-0.72062 2.80544,-0.42719 2.78379,-0.46544 -4.8429344,-8.55737 -2.249096,-2.38628 -4.892009,-4.89184 -5.87313,-5.5679 -2.066868,-1.42421 -4.664124,-4.28829 -6.851982,-7.5559 -0.844433,-1.26118 -2.005538,-2.83761 -2.580238,-3.50319 -0.574696,-0.66558 -1.574613,-2.03821 -2.222038,-3.0503 -0.647425,-1.01209 -1.731768,-2.18295 -2.409652,-2.6019 -0.677884,-0.41895 -2.046562,-1.78476 -3.041502,-3.03511 -0.99494,-1.25037 -1.99974,-2.27339 -2.23289,-2.27339 -0.23314,0 -1.76729,0.57418 -3.40921,1.27595 -5.99656,2.56299 -6.90441,2.89714 -8.98252,3.30621 -1.16417,0.22916 -3.38667,0.7378 -4.93889,1.13031 -9.76992,2.47054 -18.65729,4.16142 -21.87222,4.16134 -2.44847,-5e-5 -8.88545,0.68273 -10.56098,1.12024 -0.99227,0.25909 -1.93348,0.95206 -3.29672,2.42722 -1.88498,2.03972 -6.35903,4.90977 -10.483972,6.72534 -0.97014,0.427 -2.31951,1.13686 -2.99861,1.57747 -0.6791,0.44061 -1.9491,0.98269 -2.82222,1.20462 -0.87313,0.22193 -3.41313,1.40546 -5.64445,2.63007 -2.23132,1.2246 -5.08882,2.54949 -6.35,2.9442 -4.50252,1.40912 -8.82131,2.52811 -11.18298,2.89749 -3.54128,0.55387 -3.63369,0.60112 -3.63369,1.85798 0,0.60946 0.70805,3.9722 1.57345,7.47275 5.35872,21.67624 8.40402,34.24781 11.88192,49.05076 0.59261,2.52236 2.64571,11.01548 4.56243,18.87361 1.91672,7.85812 3.65295,15.00187 3.85828,15.875 0.20533,0.87312 1.13641,2.8575 2.06906,4.40972 2.28772,3.80747 3.92431,7.87937 3.92431,9.76386 0,0.83744 0.40767,2.74675 0.90594,4.2429 0.85982,2.58184 1.56653,3.68222 5.39136,8.39463 1.20583,1.48565 2.169372,3.28603 2.169372,4.05348 0,0.3084 0.33963,1.22648 0.75474,2.04016 0.68077,1.33441 0.7334,1.84305 0.537,5.18942 -0.24577,4.1876 -1.05382,7.4476 -2.869782,11.57785 -1.34985,3.07009 -1.52645,4.69404 -0.75442,6.93702 0.26937,0.7826 0.68673,2.29603 0.92746,3.36318 0.71279,3.15981 2.082672,7.42451 3.172862,9.87778 1.09614,2.46663 1.56416,3.9555 1.93684,6.16142 0.57041,3.37632 1.55861,3.95553 4.55633,2.67056 z m -19.655492,-49.12241 c 3.55478,-0.1124 4.29788,-0.44844 3.65362,-1.65225 -0.78606,-1.46876 -1.78961,-1.8185 -4.13444,-1.44088 -2.65986,0.42836 -3.95951,-0.0117 -11.15272,-3.77624 -0.53865,-0.28191 -1.57053,-0.60331 -2.29305,-0.71422 -1.8109,-0.27799 -2.27175,-0.71794 -2.00834,-1.91725 0.18072,-0.82284 -0.0415,-1.30403 -1.28127,-2.77432 -1.66876,-1.97905 -2.53503,-1.94321 -1.69819,0.0703 0.26657,0.64138 0.44123,1.42641 0.38814,1.7445 -0.0531,0.31809 0.24649,1.34997 0.66574,2.29305 1.02613,2.30824 3.47812,4.29508 8.26469,6.69687 3.16936,1.59031 4.10684,1.91289 5.11527,1.76013 0.6791,-0.10288 2.69535,-0.23322 4.48055,-0.28966 z m -8.52312,-12.43733 c 1.35038,-1.77044 1.50706,-4.57004 0.42518,-7.59724 -0.79039,-2.21159 -0.8655,-2.29692 -2.1139,-2.40166 -0.71192,-0.0597 -1.63266,0.0724 -2.0461,0.2937 -0.97571,0.52219 -3.29983,5.42086 -3.29983,6.95524 0,1.38265 1.22262,2.57345 3.4925,3.40162 2.09872,0.76571 2.52021,0.68817 3.54215,-0.65166 z m -8.41581,-19.98029 c 0.54621,-0.21372 2.47245,-0.38791 4.28053,-0.38706 2.3352,10e-4 3.33728,-0.12839 3.45954,-0.447 0.31065,-0.80953 -3.06025,-15.05795 -3.76264,-15.90427 -0.5648,-0.68055 -1.2774,-0.64754 -4.65885,0.21582 -3.16274,0.80752 -5.49136,1.8646 -5.78328,2.62532 -0.30019,0.7823 1.58553,8.3555 3.06535,12.31068 0.80243,2.1447 1.3362,2.39382 3.39935,1.58651 z m -2.77547,-21.30801 c 2.00187,-0.48499 3.94656,-1.04599 4.32153,-1.24667 1.17068,-0.62653 1.26282,-0.10566 -3.92941,-22.21227 -0.43293,-1.84327 -1.65237,-6.84389 -2.70986,-11.1125 -1.05749,-4.26861 -2.46929,-9.98361 -3.13732,-12.7 -0.66804,-2.71639 -1.59608,-6.36764 -2.06231,-8.11389 -0.46624,-1.74625 -1.10809,-4.52437 -1.42634,-6.17361 -0.79953,-4.14328 -2.2199,-8.05649 -3.09406,-8.52432 -0.41159,-0.22028 -1.7648,-0.31152 -3.21216,-0.21658 -2.88158,0.18903 -5.8184,1.47276 -6.80139,2.97299 -0.5851,0.89297 -0.57087,1.08307 0.36287,4.84797 1.47202,5.93524 3.20136,12.71708 5.13723,20.14633 1.72383,6.61554 4.39268,17.40157 7.11412,28.75139 1.22817,5.1221 2.0048,8.0742 3.2259,12.26225 0.39564,1.35692 1.15536,2.20182 1.97928,2.20118 0.32569,-2.5e-4 2.23005,-0.39727 4.23192,-0.88227 z m -50.51228,-79.01831 c 0.70414,-0.29421 3.36363,-2.39964 5.90999,-4.67875 2.54636,-2.2791 5.80712,-5.1757 7.24613,-6.43688 3.43178,-3.0077 4.61223,-4.65095 4.61223,-6.42045 0,-1.53358 -0.84191,-3.45733 -1.51307,-3.45733 -0.74884,0 -3.82815,2.26029 -6.95359,5.1041 -1.64924,1.50063 -3.87174,3.32961 -4.93889,4.06441 -2.84774,1.96084 -10.36635,8.97933 -11.12168,10.38189 -0.5662,1.05136 -0.5861,1.28792 -0.15236,1.81056 0.42009,0.50617 0.9045,0.5669 3.06497,0.38427 1.41132,-0.11929 3.14214,-0.45762 3.84627,-0.75182 z M 323.0235,1065.2062 c -0.68255,-0.3443 -1.24929,-0.951 -1.3819,-1.4793 -0.12361,-0.4926 -0.0537,-3.5175 0.15554,-6.722 0.2861,-4.3832 0.65324,-6.9185 1.48227,-10.236 1.64542,-6.5845 2.4578,-8.9079 3.42303,-9.7896 1.70883,-1.561 3.65182,-0.6188 3.65182,1.7708 0,1.3259 -0.47689,1.894 -1.45514,1.7335 -0.62061,-0.1019 -1.20382,1.1109 -2.59828,5.4033 -1.79581,5.5277 -2.03101,6.7406 -2.18221,11.2525 l -0.15244,4.5497 1.10723,1.1423 c 2.08548,2.1517 0.69688,3.7603 -2.04992,2.3748 z M -29.223624,759.20754 c -0.468867,-0.2624 -0.608253,-0.81844 -0.608253,-2.42648 0,-1.31721 -0.278673,-2.77351 -0.756094,-3.95122 -0.77911,-1.92191 -0.979156,-4.05534 -1.571551,-16.76024 -0.228949,-4.9102 -0.197912,-5.39023 0.362447,-5.60526 1.194975,-0.45856 1.945482,0.87488 2.110709,3.75014 0.08341,1.45151 0.315947,3.82973 0.516749,5.28494 0.200801,1.45521 0.372064,4.11229 0.380583,5.90462 0.01101,2.31528 0.275767,4.25592 0.914457,6.70278 0.664425,2.54546 0.839664,3.88267 0.671664,5.12541 -0.24729,1.82928 -0.987933,2.55328 -2.020711,1.97531 z m 15.788592,-2.08339 c -0.454922,-0.87972 -0.494362,-1.50722 -0.219439,-3.49111 0.3536,-2.55161 -0.275174,-6.88038 -1.471485,-10.13042 -0.296563,-0.80567 -0.787704,-2.79004 -1.091431,-4.40972 -0.303724,-1.61968 -0.871863,-3.85371 -1.262525,-4.96453 -0.390663,-1.11081 -0.710297,-2.17103 -0.710297,-2.35605 0,-0.53848 1.083373,-1.47128 1.447447,-1.24627 0.965892,0.59695 2.471459,4.60281 3.00487,7.99504 0.313436,1.99329 0.781946,4.0387 1.041135,4.54535 1.278534,2.4992 2.317108,13.2704 1.419582,14.72263 -0.475961,0.77012 -1.59391,0.42563 -2.157857,-0.66492 z m -11.369062,-6.40701 c -0.982578,-1.18884 -0.77475,-4.86772 0.27499,-4.86772 0.571486,0 1.813271,3.06106 1.686782,4.15799 -0.123102,1.06756 -1.310873,1.49727 -1.961772,0.70973 z m -11.737694,-45.09771 c -0.50928,-0.95161 -0.20189,-1.80047 1.058753,-2.92371 1.0841,-0.96594 3.597226,-5.64695 4.010424,-7.46991 0.468595,-2.06736 2.779483,-9.55977 3.636483,-11.79027 0.478695,-1.2459 1.006743,-2.91278 1.173434,-3.70417 0.366,-1.73764 2.944174,-11.44231 3.918794,-14.75099 0.775476,-2.63263 1.64308,-3.48284 2.588913,-2.537 0.739076,0.73907 0.697829,1.74392 -0.174057,4.2404 -0.400248,1.14603 -1.436551,4.86182 -2.302899,8.25731 -1.446914,5.67092 -2.272524,8.47616 -4.049205,13.75833 -0.358944,1.06716 -0.908043,3.05153 -1.220226,4.40973 -0.31218,1.35819 -0.865982,3.10444 -1.230666,3.88055 -0.364684,0.77611 -1.229374,2.75432 -1.921534,4.39601 -0.692158,1.6417 -1.682634,3.42764 -2.201055,3.96875 -1.146133,1.19631 -2.720789,1.32324 -3.287159,0.26497 z m -11.26599,-14.77388 c -0.40353,-0.75399 0.21689,-2.87055 0.9796,-3.34193 0.19899,-0.12299 0.63335,-1.05518 0.96524,-2.07154 0.76495,-2.34251 3.31057,-8.40924 3.77294,-8.99168 0.19254,-0.24254 0.65311,-0.44098 1.0235,-0.44098 1.65246,0 1.16969,2.0464 -2.07019,8.77541 -1.06268,2.20709 -2.13051,4.58834 -2.37297,5.29166 -0.5196,1.50727 -1.69512,1.90577 -2.29812,0.77906 z m 84.489443,-11.05132 c -0.456296,-0.65145 -0.520068,-1.50874 -0.360842,-4.85069 0.106377,-2.23267 0.251146,-7.63127 0.321709,-11.99689 0.108518,-6.71388 0.244401,-8.37257 0.881461,-10.75973 0.414242,-1.55222 0.850001,-3.73503 0.96835,-4.85069 0.209886,-1.97853 0.193795,-2.02847 -0.653513,-2.02847 -0.477789,0 -1.492589,-0.53294 -2.255118,-1.18431 -2.398791,-2.04911 -7.441333,-4.21382 -15.31798,-6.57585 -5.980229,-1.79335 -7.058717,-1.99717 -7.058717,-1.33404 0,0.28013 -0.594511,0.89404 -1.321135,1.36426 -1.674149,1.08338 -5.2089926,6.76644 -5.5309346,8.89223 -0.254116,1.67792 -1.486845,4.04857 -2.401729,4.61874 -0.468552,0.29201 -0.749374,0.24199 -1.206221,-0.21486 -0.528627,-0.52863 -0.545984,-0.81666 -0.154616,-2.56549 0.489878,-2.18901 2.071148,-5.87733 3.10139,-7.23402 1.135172,-1.49486 3.633326,-5.91774 3.621472,-6.41167 -0.0062,-0.25712 -0.244298,-0.77565 -0.529166,-1.15228 -0.314728,-0.4161 -0.517949,-1.47367 -0.517949,-2.6954 0,-2.85881 -1.56005,-8.58511 -2.971539,-10.90731 -0.648642,-1.06715 -1.773964,-3.1309 -2.500711,-4.58611 -0.979054,-1.96041 -2.10925502,-3.4395 -4.36275,-5.70951 -1.672763,-1.68501 -4.01259,-4.30602 -5.199614,-5.82445 -1.187026,-1.51844 -2.615777,-2.99016 -3.175,-3.27051 -0.5592274,-0.28035 -1.9977244,-1.19153 -3.1966574,-2.02485 -1.198937,-0.83332 -2.287341,-1.51513 -2.41868,-1.51513 -0.131339,0 -0.838588,-0.47504 -1.571671,-1.05565 -1.449889,-1.14834 -4.793774,-2.81593 -5.657618,-2.82146 -0.296428,-0.002 -0.819968,0.32475 -1.163422,0.72588 -0.802697,0.93748 -1.32751,0.74635 -2.073035,-0.75495 -2.576467,-5.18839 2.560863,-5.11757 10.48789,0.14456 1.352864,0.89806 3.09596,2.08784 3.873553,2.64395 0.777589,0.55612 1.9169494,1.27131 2.5319044,1.58932 0.614959,0.318 2.042499,1.6418 3.172312,2.94177 1.129813,1.29997 3.570185,3.96094 5.42305198,5.91328 1.85286302,1.95233 3.74266602,4.08484 4.19955902,4.73891 0.788437,1.1287 0.914841,1.17926 2.483651,0.99346 0.909112,-0.10767 2.591184,-0.54033 3.737938,-0.96147 4.1445176,-1.52204 6.1720666,-1.20731 5.6489636,0.8769 -0.18064,0.71973 -0.635476,0.99335 -2.59703,1.56237 -1.307924,0.37941 -2.933665,0.80136 -3.6127616,0.93767 -1.642276,0.32963 -2.469445,0.79016 -2.469445,1.37487 0,0.26408 0.5574,1.65386 1.238666,3.08842 1.26643,2.66674 2.5958556,7.58065 3.3161356,12.25732 0.473672,3.07549 0.905408,3.82698 1.757585,3.05929 1.078929,-0.97194 2.324972,-0.97715 6.059703,-0.0253 3.530163,0.89971 5.165588,1.40788 10.205689,3.17122 2.964495,1.03715 7.81828,3.44479 8.429548,4.18132 0.894264,1.07752 1.337127,0.57354 2.324528,-2.64532 0.914089,-2.97985 0.99424,-3.72083 1.078036,-9.96597 0.05993,-4.4666 0.281499,-7.68125 0.655595,-9.51182 0.701103,-3.4307 0.712727,-4.84237 0.04712,-5.72237 -0.355258,-0.4697 -0.521469,-1.59581 -0.529167,-3.58518 -0.0062,-1.59522 -0.262668,-4.13522 -0.569994,-5.64445 -1.164339,-5.71787 -2.689281,-12.4367 -3.865576,-17.03155 -0.670568,-2.61938 -1.708052,-6.90563 -2.305516,-9.525 -1.5604,-6.84099 -2.701629,-10.11796 -4.330955,-12.43607 -1.484062,-2.11142 -1.457046,-3.05902 0.07336,-2.57328 1.333761,0.42331 3.900392,3.6728 4.433263,5.61273 0.273734,0.99654 0.932307,3.32002 1.463495,5.16329 0.531188,1.84326 1.23879,4.62138 1.572447,6.17361 0.333657,1.55222 0.927428,3.85601 1.319495,5.11954 0.392067,1.26352 1.051983,3.86262 1.466487,5.77579 0.414503,1.91316 0.912869,3.776 1.107482,4.13964 0.194614,0.36363 0.515645,1.57453 0.713405,2.69087 0.509094,2.87382 1.014988,4.32277 1.509279,4.32277 0.234576,0 1.019094,-0.79375 1.743371,-1.76389 1.310171,-1.75493 2.18899,-2.14808 2.996516,-1.34056 0.722648,0.72265 0.472193,1.9026 -0.807445,3.80414 -2.01223,2.99016 -2.389304,4.5167 -2.659253,10.76559 -0.134108,3.10444 -0.452413,7.31131 -0.707337,9.34861 -0.254928,2.03729 -0.342727,4.18041 -0.195107,4.7625 l 0.268393,1.05833 0.694006,-0.88194 c 1.195839,-1.51969 4.138969,-6.28319 5.286093,-8.55562 0.604696,-1.19791 1.45041,-2.7395 1.87936,-3.42578 0.428953,-0.68627 0.972647,-1.8034 1.208215,-2.48249 0.593513,-1.71101 1.453437,-8.47685 1.752702,-13.79016 l 0.250162,-4.44155 1.546081,-2.37302 c 1.059279,-1.62584 2.88888,-3.55251 5.8108,-6.11908 2.345595,-2.06034 5.041463,-4.51034 5.990813,-5.44446 1.218766,-1.19922 2.011246,-1.6984 2.696284,-1.6984 1.709731,0 1.949055,2.14498 0.347963,3.11866 -0.577773,0.35136 -2.382612,1.85798 -4.010752,3.34804 -1.62814,1.49006 -3.576356,3.1954 -4.329367,3.78965 -1.460377,1.15248 -3.189245,3.18267 -4.456702,5.23346 -0.583103,0.94348 -0.832312,2.05114 -0.998326,4.43724 -0.545662,7.84289 -1.407672,13.35691 -2.399781,15.35073 -3.277,6.58569 -4.860764,9.53407 -5.874492,10.93611 -0.631303,0.87312 -1.545858,2.54 -2.032346,3.70417 -0.486484,1.16416 -1.712038,3.94229 -2.723448,6.17361 -2.484445,5.48104 -2.735446,6.2234 -3.314295,9.80231 -0.27548,1.70327 -0.746308,4.04422 -1.046286,5.20213 -0.915074,3.53218 -1.23541,8.01384 -1.3104,18.33306 -0.03948,5.43277 -0.226261,10.31434 -0.415071,10.84791 -0.430266,1.21595 -1.744479,1.30863 -2.535817,0.17884 z m 32.264244,-11.20314 c -1.069894,-1.06989 -0.860771,-2.01675 0.870775,-3.94265 3.078897,-3.42447 4.768081,-7.42561 5.484347,-12.99068 0.817228,-6.34951 1.46382,-9.17835 2.186281,-9.565 1.751545,-0.9374 2.050355,0.37065 1.177667,5.15528 -0.283114,1.55222 -0.669381,4.09222 -0.858368,5.64444 -0.217318,1.78493 -0.943303,4.44299 -1.975224,7.23194 -1.248199,3.37348 -1.545615,4.55152 -1.265654,5.01314 0.460777,0.75976 0.153024,1.60134 -0.682565,1.86655 -0.353106,0.11207 -1.233392,0.67374 -1.956198,1.24815 -1.5492,1.23115 -2.033676,1.28622 -2.981061,0.33883 z M 29.787572,609.32443 c -0.400455,-0.40046 -0.705555,-1.17593 -0.705555,-1.79331 0,-3.32667 -3.546271,-12.19933 -6.889783,-17.23801 -1.817966,-2.73969 -4.046329,-7.17306 -4.046329,-8.05025 0,-1.88632 1.583408,-0.92819 3.221355,1.94927 0.634097,1.11394 1.849512,3.10658 2.700927,4.42808 3.701334,5.74494 7.836052,15.78081 7.836052,19.01982 0,0.70467 -0.249463,1.53069 -0.554366,1.83559 -0.698902,0.6989 -0.713634,0.69747 -1.562301,-0.15119 z M 17.440349,551.70692 c 0,-0.45115 0.730942,-1.76084 1.624313,-2.91042 0.893371,-1.14957 1.92847,-2.68544 2.300224,-3.41305 0.494107,-0.96708 0.901058,-1.32291 1.512947,-1.32291 2.089433,0 1.238554,2.42101 -2.091552,5.9511 -2.485916,2.63519 -3.345932,3.07094 -3.345932,1.69528 z"
       id="path6209"
       inkscape:connector-curvature="0" />
  </g>
</svg>
